solid OpenSCAD_Model
  facet normal -1 0 0
    outer loop
      vertex -17 -7 -2.75
      vertex -17 7 2.75
      vertex -17 7 -2.75
    endloop
  endfacet
  facet normal -1 -0 0
    outer loop
      vertex -17 7 2.75
      vertex -17 -7 -2.75
      vertex -17 -7 2.75
    endloop
  endfacet
  facet normal 0 0 1
    outer loop
      vertex 17 7 2.75
      vertex 15.4 0 2.75
      vertex 17 -7 2.75
    endloop
  endfacet
  facet normal 0 0 1
    outer loop
      vertex 17 7 2.75
      vertex 15.3803 0.18712 2.75
      vertex 15.4 0 2.75
    endloop
  endfacet
  facet normal 0 0 1
    outer loop
      vertex 17 7 2.75
      vertex 15.3222 0.366062 2.75
      vertex 15.3803 0.18712 2.75
    endloop
  endfacet
  facet normal 0 0 1
    outer loop
      vertex 17 7 2.75
      vertex 15.2281 0.529006 2.75
      vertex 15.3222 0.366062 2.75
    endloop
  endfacet
  facet normal 0 0 1
    outer loop
      vertex 17 7 2.75
      vertex 15.1022 0.66883 2.75
      vertex 15.2281 0.529006 2.75
    endloop
  endfacet
  facet normal 0 0 1
    outer loop
      vertex 17 7 2.75
      vertex 14.95 0.779423 2.75
      vertex 15.1022 0.66883 2.75
    endloop
  endfacet
  facet normal 0 0 1
    outer loop
      vertex 17 7 2.75
      vertex 14.7781 0.85595 2.75
      vertex 14.95 0.779423 2.75
    endloop
  endfacet
  facet normal 0 0 1
    outer loop
      vertex 17 7 2.75
      vertex 14.5941 0.895069 2.75
      vertex 14.7781 0.85595 2.75
    endloop
  endfacet
  facet normal -0 0 1
    outer loop
      vertex 12 6.3 2.75
      vertex 14.5941 0.895069 2.75
      vertex 17 7 2.75
    endloop
  endfacet
  facet normal 0 0 1
    outer loop
      vertex 14.5941 0.895069 2.75
      vertex 12 6.3 2.75
      vertex 14.4059 0.895069 2.75
    endloop
  endfacet
  facet normal 0 0 1
    outer loop
      vertex 14.4059 0.895069 2.75
      vertex 12 6.3 2.75
      vertex 14.2219 0.85595 2.75
    endloop
  endfacet
  facet normal 0 0 1
    outer loop
      vertex 14.2219 0.85595 2.75
      vertex 12 6.3 2.75
      vertex 14.05 0.779423 2.75
    endloop
  endfacet
  facet normal 0 0 1
    outer loop
      vertex 14.05 0.779423 2.75
      vertex 12 6.3 2.75
      vertex 13.8978 0.66883 2.75
    endloop
  endfacet
  facet normal 0 0 1
    outer loop
      vertex 13.8978 0.66883 2.75
      vertex 12 6.3 2.75
      vertex 13.7719 0.529006 2.75
    endloop
  endfacet
  facet normal 0 0 1
    outer loop
      vertex 13.6197 0.18712 2.75
      vertex 12 6.3 2.75
      vertex 13.6 0 2.75
    endloop
  endfacet
  facet normal 0 0 1
    outer loop
      vertex 13.6778 0.366062 2.75
      vertex 12 6.3 2.75
      vertex 13.6197 0.18712 2.75
    endloop
  endfacet
  facet normal 0 0 1
    outer loop
      vertex 13.7719 0.529006 2.75
      vertex 12 6.3 2.75
      vertex 13.6778 0.366062 2.75
    endloop
  endfacet
  facet normal 0 0 1
    outer loop
      vertex 17 7 2.75
      vertex -12 6.3 2.75
      vertex 12 6.3 2.75
    endloop
  endfacet
  facet normal 0 0 1
    outer loop
      vertex -12 6.3 2.75
      vertex -13.6 0 2.75
      vertex -12 -6.3 2.75
    endloop
  endfacet
  facet normal 0 0 1
    outer loop
      vertex -12 6.3 2.75
      vertex -13.6197 0.18712 2.75
      vertex -13.6 0 2.75
    endloop
  endfacet
  facet normal 0 0 1
    outer loop
      vertex -12 6.3 2.75
      vertex -13.6778 0.366062 2.75
      vertex -13.6197 0.18712 2.75
    endloop
  endfacet
  facet normal 0 0 1
    outer loop
      vertex -12 6.3 2.75
      vertex -13.7719 0.529006 2.75
      vertex -13.6778 0.366062 2.75
    endloop
  endfacet
  facet normal 0 0 1
    outer loop
      vertex -12 6.3 2.75
      vertex -13.8978 0.66883 2.75
      vertex -13.7719 0.529006 2.75
    endloop
  endfacet
  facet normal 0 0 1
    outer loop
      vertex -12 6.3 2.75
      vertex -14.05 0.779423 2.75
      vertex -13.8978 0.66883 2.75
    endloop
  endfacet
  facet normal 0 0 1
    outer loop
      vertex -12 6.3 2.75
      vertex -14.2219 0.85595 2.75
      vertex -14.05 0.779423 2.75
    endloop
  endfacet
  facet normal 0 0 1
    outer loop
      vertex -12 6.3 2.75
      vertex -14.4059 0.895069 2.75
      vertex -14.2219 0.85595 2.75
    endloop
  endfacet
  facet normal 0 0 1
    outer loop
      vertex -12 6.3 2.75
      vertex -14.5941 0.895069 2.75
      vertex -14.4059 0.895069 2.75
    endloop
  endfacet
  facet normal 0 0 1
    outer loop
      vertex -17 7 2.75
      vertex -14.5941 0.895069 2.75
      vertex -12 6.3 2.75
    endloop
  endfacet
  facet normal 0 0 1
    outer loop
      vertex -14.5941 0.895069 2.75
      vertex -17 7 2.75
      vertex -14.7781 0.85595 2.75
    endloop
  endfacet
  facet normal 0 0 1
    outer loop
      vertex -14.7781 0.85595 2.75
      vertex -17 7 2.75
      vertex -14.95 0.779423 2.75
    endloop
  endfacet
  facet normal 0 0 1
    outer loop
      vertex -14.95 0.779423 2.75
      vertex -17 7 2.75
      vertex -15.1022 0.66883 2.75
    endloop
  endfacet
  facet normal 0 0 1
    outer loop
      vertex -15.1022 0.66883 2.75
      vertex -17 7 2.75
      vertex -15.2281 0.529006 2.75
    endloop
  endfacet
  facet normal 0 0 1
    outer loop
      vertex -15.3803 0.18712 2.75
      vertex -17 7 2.75
      vertex -15.4 0 2.75
    endloop
  endfacet
  facet normal 0 0 1
    outer loop
      vertex -15.3222 0.366062 2.75
      vertex -17 7 2.75
      vertex -15.3803 0.18712 2.75
    endloop
  endfacet
  facet normal 0 0 1
    outer loop
      vertex -15.2281 0.529006 2.75
      vertex -17 7 2.75
      vertex -15.3222 0.366062 2.75
    endloop
  endfacet
  facet normal -0 0 1
    outer loop
      vertex -17 7 2.75
      vertex -12 6.3 2.75
      vertex 17 7 2.75
    endloop
  endfacet
  facet normal -0 0 1
    outer loop
      vertex 15.3803 -0.18712 2.75
      vertex 17 -7 2.75
      vertex 15.4 0 2.75
    endloop
  endfacet
  facet normal -0 0 1
    outer loop
      vertex 15.3222 -0.366062 2.75
      vertex 17 -7 2.75
      vertex 15.3803 -0.18712 2.75
    endloop
  endfacet
  facet normal -0 0 1
    outer loop
      vertex 15.2281 -0.529006 2.75
      vertex 17 -7 2.75
      vertex 15.3222 -0.366062 2.75
    endloop
  endfacet
  facet normal -0 0 1
    outer loop
      vertex 15.1022 -0.66883 2.75
      vertex 17 -7 2.75
      vertex 15.2281 -0.529006 2.75
    endloop
  endfacet
  facet normal -0 0 1
    outer loop
      vertex 14.95 -0.779423 2.75
      vertex 17 -7 2.75
      vertex 15.1022 -0.66883 2.75
    endloop
  endfacet
  facet normal -0 0 1
    outer loop
      vertex 14.7781 -0.85595 2.75
      vertex 17 -7 2.75
      vertex 14.95 -0.779423 2.75
    endloop
  endfacet
  facet normal -0 0 1
    outer loop
      vertex 14.5941 -0.895069 2.75
      vertex 17 -7 2.75
      vertex 14.7781 -0.85595 2.75
    endloop
  endfacet
  facet normal 0 0 1
    outer loop
      vertex 12 -6.3 2.75
      vertex 14.5941 -0.895069 2.75
      vertex 14.4059 -0.895069 2.75
    endloop
  endfacet
  facet normal 0 0 1
    outer loop
      vertex 12 -6.3 2.75
      vertex 14.4059 -0.895069 2.75
      vertex 14.2219 -0.85595 2.75
    endloop
  endfacet
  facet normal 0 0 1
    outer loop
      vertex 12 -6.3 2.75
      vertex 14.2219 -0.85595 2.75
      vertex 14.05 -0.779423 2.75
    endloop
  endfacet
  facet normal 0 0 1
    outer loop
      vertex 12 -6.3 2.75
      vertex 14.05 -0.779423 2.75
      vertex 13.8978 -0.66883 2.75
    endloop
  endfacet
  facet normal 0 0 1
    outer loop
      vertex 12 -6.3 2.75
      vertex 13.8978 -0.66883 2.75
      vertex 13.7719 -0.529006 2.75
    endloop
  endfacet
  facet normal 0 0 1
    outer loop
      vertex 12 -6.3 2.75
      vertex 13.7719 -0.529006 2.75
      vertex 13.6778 -0.366062 2.75
    endloop
  endfacet
  facet normal 0 0 1
    outer loop
      vertex 12 -6.3 2.75
      vertex 13.6 0 2.75
      vertex 12 6.3 2.75
    endloop
  endfacet
  facet normal 0 0 1
    outer loop
      vertex 13.6 0 2.75
      vertex 12 -6.3 2.75
      vertex 13.6197 -0.18712 2.75
    endloop
  endfacet
  facet normal 0 0 1
    outer loop
      vertex 12 -6.3 2.75
      vertex 13.6778 -0.366062 2.75
      vertex 13.6197 -0.18712 2.75
    endloop
  endfacet
  facet normal 0 0 1
    outer loop
      vertex 14.5941 -0.895069 2.75
      vertex 12 -6.3 2.75
      vertex 17 -7 2.75
    endloop
  endfacet
  facet normal -0 0 1
    outer loop
      vertex -12 -6.3 2.75
      vertex 17 -7 2.75
      vertex 12 -6.3 2.75
    endloop
  endfacet
  facet normal -0 0 1
    outer loop
      vertex -13.6197 -0.18712 2.75
      vertex -12 -6.3 2.75
      vertex -13.6 0 2.75
    endloop
  endfacet
  facet normal -0 0 1
    outer loop
      vertex -13.6778 -0.366062 2.75
      vertex -12 -6.3 2.75
      vertex -13.6197 -0.18712 2.75
    endloop
  endfacet
  facet normal -0 0 1
    outer loop
      vertex -13.7719 -0.529006 2.75
      vertex -12 -6.3 2.75
      vertex -13.6778 -0.366062 2.75
    endloop
  endfacet
  facet normal -0 0 1
    outer loop
      vertex -13.8978 -0.66883 2.75
      vertex -12 -6.3 2.75
      vertex -13.7719 -0.529006 2.75
    endloop
  endfacet
  facet normal -0 0 1
    outer loop
      vertex -14.05 -0.779423 2.75
      vertex -12 -6.3 2.75
      vertex -13.8978 -0.66883 2.75
    endloop
  endfacet
  facet normal -0 0 1
    outer loop
      vertex -14.2219 -0.85595 2.75
      vertex -12 -6.3 2.75
      vertex -14.05 -0.779423 2.75
    endloop
  endfacet
  facet normal -0 0 1
    outer loop
      vertex -14.4059 -0.895069 2.75
      vertex -12 -6.3 2.75
      vertex -14.2219 -0.85595 2.75
    endloop
  endfacet
  facet normal -0 0 1
    outer loop
      vertex -14.5941 -0.895069 2.75
      vertex -12 -6.3 2.75
      vertex -14.4059 -0.895069 2.75
    endloop
  endfacet
  facet normal 0 0 1
    outer loop
      vertex -17 -7 2.75
      vertex -14.5941 -0.895069 2.75
      vertex -14.7781 -0.85595 2.75
    endloop
  endfacet
  facet normal 0 0 1
    outer loop
      vertex -17 -7 2.75
      vertex -14.7781 -0.85595 2.75
      vertex -14.95 -0.779423 2.75
    endloop
  endfacet
  facet normal 0 0 1
    outer loop
      vertex -17 -7 2.75
      vertex -14.95 -0.779423 2.75
      vertex -15.1022 -0.66883 2.75
    endloop
  endfacet
  facet normal 0 0 1
    outer loop
      vertex -17 -7 2.75
      vertex -15.1022 -0.66883 2.75
      vertex -15.2281 -0.529006 2.75
    endloop
  endfacet
  facet normal 0 0 1
    outer loop
      vertex -17 -7 2.75
      vertex -15.2281 -0.529006 2.75
      vertex -15.3222 -0.366062 2.75
    endloop
  endfacet
  facet normal 0 0 1
    outer loop
      vertex -17 -7 2.75
      vertex -15.4 0 2.75
      vertex -17 7 2.75
    endloop
  endfacet
  facet normal 0 0 1
    outer loop
      vertex -12 -6.3 2.75
      vertex -17 -7 2.75
      vertex 17 -7 2.75
    endloop
  endfacet
  facet normal 0 0 1
    outer loop
      vertex -14.5941 -0.895069 2.75
      vertex -17 -7 2.75
      vertex -12 -6.3 2.75
    endloop
  endfacet
  facet normal 0 0 1
    outer loop
      vertex -15.3803 -0.18712 2.75
      vertex -17 -7 2.75
      vertex -15.3222 -0.366062 2.75
    endloop
  endfacet
  facet normal 0 0 1
    outer loop
      vertex -15.4 0 2.75
      vertex -17 -7 2.75
      vertex -15.3803 -0.18712 2.75
    endloop
  endfacet
  facet normal 1 -0 0
    outer loop
      vertex 17 -7 2.75
      vertex 17 7 -2.75
      vertex 17 7 2.75
    endloop
  endfacet
  facet normal 1 0 0
    outer loop
      vertex 17 7 -2.75
      vertex 17 -7 2.75
      vertex 17 -7 -2.75
    endloop
  endfacet
  facet normal 0 1 -0
    outer loop
      vertex 17 7 -2.75
      vertex -17 7 2.75
      vertex 17 7 2.75
    endloop
  endfacet
  facet normal 0 1 0
    outer loop
      vertex -17 7 2.75
      vertex 17 7 -2.75
      vertex -17 7 -2.75
    endloop
  endfacet
  facet normal 0 0 -1
    outer loop
      vertex 17 -7 -2.75
      vertex 15.4 0 -2.75
      vertex 17 7 -2.75
    endloop
  endfacet
  facet normal 0 0 -1
    outer loop
      vertex 17 -7 -2.75
      vertex 15.3803 -0.18712 -2.75
      vertex 15.4 0 -2.75
    endloop
  endfacet
  facet normal 0 0 -1
    outer loop
      vertex 17 -7 -2.75
      vertex 15.3222 -0.366062 -2.75
      vertex 15.3803 -0.18712 -2.75
    endloop
  endfacet
  facet normal 0 0 -1
    outer loop
      vertex 17 -7 -2.75
      vertex 15.2281 -0.529006 -2.75
      vertex 15.3222 -0.366062 -2.75
    endloop
  endfacet
  facet normal 0 0 -1
    outer loop
      vertex 17 -7 -2.75
      vertex 15.1022 -0.66883 -2.75
      vertex 15.2281 -0.529006 -2.75
    endloop
  endfacet
  facet normal 0 0 -1
    outer loop
      vertex 17 -7 -2.75
      vertex 14.95 -0.779423 -2.75
      vertex 15.1022 -0.66883 -2.75
    endloop
  endfacet
  facet normal 0 0 -1
    outer loop
      vertex 17 -7 -2.75
      vertex 14.7781 -0.85595 -2.75
      vertex 14.95 -0.779423 -2.75
    endloop
  endfacet
  facet normal 0 0 -1
    outer loop
      vertex 17 -7 -2.75
      vertex 14.5941 -0.895069 -2.75
      vertex 14.7781 -0.85595 -2.75
    endloop
  endfacet
  facet normal 0 0 -1
    outer loop
      vertex 17 -7 -2.75
      vertex 14.4059 -0.895069 -2.75
      vertex 14.5941 -0.895069 -2.75
    endloop
  endfacet
  facet normal 0 0 -1
    outer loop
      vertex 11.1553 -2.56244 -2.75
      vertex 14.4059 -0.895069 -2.75
      vertex 17 -7 -2.75
    endloop
  endfacet
  facet normal -0 0 -1
    outer loop
      vertex 14.4059 -0.895069 -2.75
      vertex 11.1553 -2.56244 -2.75
      vertex 14.2219 -0.85595 -2.75
    endloop
  endfacet
  facet normal -0 0 -1
    outer loop
      vertex 14.2219 -0.85595 -2.75
      vertex 11.1553 -2.56244 -2.75
      vertex 14.05 -0.779423 -2.75
    endloop
  endfacet
  facet normal 0 -0 -1
    outer loop
      vertex 11.5623 -1.30984 -2.75
      vertex 14.05 -0.779423 -2.75
      vertex 11.1553 -2.56244 -2.75
    endloop
  endfacet
  facet normal -0 0 -1
    outer loop
      vertex 14.05 -0.779423 -2.75
      vertex 11.5623 -1.30984 -2.75
      vertex 13.8978 -0.66883 -2.75
    endloop
  endfacet
  facet normal 0 0 -1
    outer loop
      vertex 13.6197 -0.18712 -2.75
      vertex 11.7 0 -2.75
      vertex 13.6 0 -2.75
    endloop
  endfacet
  facet normal 0 0 -1
    outer loop
      vertex 13.6778 -0.366062 -2.75
      vertex 11.7 0 -2.75
      vertex 13.6197 -0.18712 -2.75
    endloop
  endfacet
  facet normal -0 0 -1
    outer loop
      vertex 13.8978 -0.66883 -2.75
      vertex 11.5623 -1.30984 -2.75
      vertex 13.7719 -0.529006 -2.75
    endloop
  endfacet
  facet normal -0 0 -1
    outer loop
      vertex 13.6778 -0.366062 -2.75
      vertex 11.5623 -1.30984 -2.75
      vertex 11.7 0 -2.75
    endloop
  endfacet
  facet normal -0 0 -1
    outer loop
      vertex 13.7719 -0.529006 -2.75
      vertex 11.5623 -1.30984 -2.75
      vertex 13.6778 -0.366062 -2.75
    endloop
  endfacet
  facet normal 0 0 -1
    outer loop
      vertex 17 -7 -2.75
      vertex 10.4968 -3.70305 -2.75
      vertex 11.1553 -2.56244 -2.75
    endloop
  endfacet
  facet normal 0 0 -1
    outer loop
      vertex 17 -7 -2.75
      vertex 9.61552 -4.68181 -2.75
      vertex 10.4968 -3.70305 -2.75
    endloop
  endfacet
  facet normal 0 0 -1
    outer loop
      vertex 17 -7 -2.75
      vertex 8.55 -5.45596 -2.75
      vertex 9.61552 -4.68181 -2.75
    endloop
  endfacet
  facet normal 0 0 -1
    outer loop
      vertex 17 -7 -2.75
      vertex 7.34681 -5.99166 -2.75
      vertex 8.55 -5.45596 -2.75
    endloop
  endfacet
  facet normal 0 0 -1
    outer loop
      vertex 17 -7 -2.75
      vertex 6.05853 -6.26549 -2.75
      vertex 7.34681 -5.99166 -2.75
    endloop
  endfacet
  facet normal 0 0 -1
    outer loop
      vertex 17 -7 -2.75
      vertex 4.74147 -6.26549 -2.75
      vertex 6.05853 -6.26549 -2.75
    endloop
  endfacet
  facet normal 0 0 -1
    outer loop
      vertex 0.303192 -3.70305 -2.75
      vertex -3.5 -3.1 -2.75
      vertex -0.0449767 -3.1 -2.75
    endloop
  endfacet
  facet normal 0 0 -1
    outer loop
      vertex 1.18448 -4.68181 -2.75
      vertex -3.5 -3.1 -2.75
      vertex 0.303192 -3.70305 -2.75
    endloop
  endfacet
  facet normal 0 0 -1
    outer loop
      vertex 2.25 -5.45596 -2.75
      vertex -3.5 -3.1 -2.75
      vertex 1.18448 -4.68181 -2.75
    endloop
  endfacet
  facet normal 0 0 -1
    outer loop
      vertex -17 -7 -2.75
      vertex 2.25 -5.45596 -2.75
      vertex 3.45319 -5.99166 -2.75
    endloop
  endfacet
  facet normal 0 0 -1
    outer loop
      vertex -3.5 -3.1 -2.75
      vertex -13.6 0 -2.75
      vertex -3.5 3.1 -2.75
    endloop
  endfacet
  facet normal -0 0 -1
    outer loop
      vertex 2.25 -5.45596 -2.75
      vertex -17 -7 -2.75
      vertex -3.5 -3.1 -2.75
    endloop
  endfacet
  facet normal 0 0 -1
    outer loop
      vertex -3.5 -3.1 -2.75
      vertex -13.6197 -0.18712 -2.75
      vertex -13.6 0 -2.75
    endloop
  endfacet
  facet normal 0 0 -1
    outer loop
      vertex -3.5 -3.1 -2.75
      vertex -13.6778 -0.366062 -2.75
      vertex -13.6197 -0.18712 -2.75
    endloop
  endfacet
  facet normal 0 0 -1
    outer loop
      vertex -3.5 -3.1 -2.75
      vertex -13.7719 -0.529006 -2.75
      vertex -13.6778 -0.366062 -2.75
    endloop
  endfacet
  facet normal 0 0 -1
    outer loop
      vertex -3.5 -3.1 -2.75
      vertex -13.8978 -0.66883 -2.75
      vertex -13.7719 -0.529006 -2.75
    endloop
  endfacet
  facet normal 0 -0 -1
    outer loop
      vertex -14.05 -0.779423 -2.75
      vertex -3.5 -3.1 -2.75
      vertex -17 -7 -2.75
    endloop
  endfacet
  facet normal 0 0 -1
    outer loop
      vertex -3.5 -3.1 -2.75
      vertex -14.05 -0.779423 -2.75
      vertex -13.8978 -0.66883 -2.75
    endloop
  endfacet
  facet normal 0 0 -1
    outer loop
      vertex -14.05 -0.779423 -2.75
      vertex -17 -7 -2.75
      vertex -14.2219 -0.85595 -2.75
    endloop
  endfacet
  facet normal 0 0 -1
    outer loop
      vertex -14.2219 -0.85595 -2.75
      vertex -17 -7 -2.75
      vertex -14.4059 -0.895069 -2.75
    endloop
  endfacet
  facet normal -0 0 -1
    outer loop
      vertex -14.4059 -0.895069 -2.75
      vertex -17 -7 -2.75
      vertex -14.5941 -0.895069 -2.75
    endloop
  endfacet
  facet normal -0 0 -1
    outer loop
      vertex -15.3803 -0.18712 -2.75
      vertex -17 -7 -2.75
      vertex -15.4 0 -2.75
    endloop
  endfacet
  facet normal -0 0 -1
    outer loop
      vertex -15.3222 -0.366062 -2.75
      vertex -17 -7 -2.75
      vertex -15.3803 -0.18712 -2.75
    endloop
  endfacet
  facet normal -0 0 -1
    outer loop
      vertex -15.2281 -0.529006 -2.75
      vertex -17 -7 -2.75
      vertex -15.3222 -0.366062 -2.75
    endloop
  endfacet
  facet normal -0 0 -1
    outer loop
      vertex -15.1022 -0.66883 -2.75
      vertex -17 -7 -2.75
      vertex -15.2281 -0.529006 -2.75
    endloop
  endfacet
  facet normal -0 0 -1
    outer loop
      vertex -14.95 -0.779423 -2.75
      vertex -17 -7 -2.75
      vertex -15.1022 -0.66883 -2.75
    endloop
  endfacet
  facet normal -0 0 -1
    outer loop
      vertex -14.7781 -0.85595 -2.75
      vertex -17 -7 -2.75
      vertex -14.95 -0.779423 -2.75
    endloop
  endfacet
  facet normal -0 0 -1
    outer loop
      vertex -14.5941 -0.895069 -2.75
      vertex -17 -7 -2.75
      vertex -14.7781 -0.85595 -2.75
    endloop
  endfacet
  facet normal -0 0 -1
    outer loop
      vertex 4.74147 -6.26549 -2.75
      vertex -17 -7 -2.75
      vertex 3.45319 -5.99166 -2.75
    endloop
  endfacet
  facet normal 0 0 -1
    outer loop
      vertex -17 -7 -2.75
      vertex 4.74147 -6.26549 -2.75
      vertex 17 -7 -2.75
    endloop
  endfacet
  facet normal 0 0 -1
    outer loop
      vertex 15.3803 0.18712 -2.75
      vertex 17 7 -2.75
      vertex 15.4 0 -2.75
    endloop
  endfacet
  facet normal 0 0 -1
    outer loop
      vertex 15.3222 0.366062 -2.75
      vertex 17 7 -2.75
      vertex 15.3803 0.18712 -2.75
    endloop
  endfacet
  facet normal 0 0 -1
    outer loop
      vertex 15.2281 0.529006 -2.75
      vertex 17 7 -2.75
      vertex 15.3222 0.366062 -2.75
    endloop
  endfacet
  facet normal 0 0 -1
    outer loop
      vertex 15.1022 0.66883 -2.75
      vertex 17 7 -2.75
      vertex 15.2281 0.529006 -2.75
    endloop
  endfacet
  facet normal 0 0 -1
    outer loop
      vertex 14.95 0.779423 -2.75
      vertex 17 7 -2.75
      vertex 15.1022 0.66883 -2.75
    endloop
  endfacet
  facet normal 0 0 -1
    outer loop
      vertex 14.7781 0.85595 -2.75
      vertex 17 7 -2.75
      vertex 14.95 0.779423 -2.75
    endloop
  endfacet
  facet normal 0 0 -1
    outer loop
      vertex 14.5941 0.895069 -2.75
      vertex 17 7 -2.75
      vertex 14.7781 0.85595 -2.75
    endloop
  endfacet
  facet normal 0 0 -1
    outer loop
      vertex 14.4059 0.895069 -2.75
      vertex 17 7 -2.75
      vertex 14.5941 0.895069 -2.75
    endloop
  endfacet
  facet normal 0 0 -1
    outer loop
      vertex 11.1553 2.56244 -2.75
      vertex 14.4059 0.895069 -2.75
      vertex 14.2219 0.85595 -2.75
    endloop
  endfacet
  facet normal 0 0 -1
    outer loop
      vertex 11.1553 2.56244 -2.75
      vertex 14.2219 0.85595 -2.75
      vertex 14.05 0.779423 -2.75
    endloop
  endfacet
  facet normal 0 0 -1
    outer loop
      vertex 11.5623 1.30984 -2.75
      vertex 14.05 0.779423 -2.75
      vertex 13.8978 0.66883 -2.75
    endloop
  endfacet
  facet normal 0 0 -1
    outer loop
      vertex 11.5623 1.30984 -2.75
      vertex 13.8978 0.66883 -2.75
      vertex 13.7719 0.529006 -2.75
    endloop
  endfacet
  facet normal 0 0 -1
    outer loop
      vertex 11.5623 1.30984 -2.75
      vertex 13.7719 0.529006 -2.75
      vertex 13.6778 0.366062 -2.75
    endloop
  endfacet
  facet normal 0 0 -1
    outer loop
      vertex 11.7 0 -2.75
      vertex 13.6197 0.18712 -2.75
      vertex 13.6 0 -2.75
    endloop
  endfacet
  facet normal 0 0 -1
    outer loop
      vertex 11.7 0 -2.75
      vertex 13.6778 0.366062 -2.75
      vertex 13.6197 0.18712 -2.75
    endloop
  endfacet
  facet normal 0 0 -1
    outer loop
      vertex 11.5623 1.30984 -2.75
      vertex 13.6778 0.366062 -2.75
      vertex 11.7 0 -2.75
    endloop
  endfacet
  facet normal 0 0 -1
    outer loop
      vertex 14.05 0.779423 -2.75
      vertex 11.5623 1.30984 -2.75
      vertex 11.1553 2.56244 -2.75
    endloop
  endfacet
  facet normal 0 0 -1
    outer loop
      vertex 14.4059 0.895069 -2.75
      vertex 11.1553 2.56244 -2.75
      vertex 17 7 -2.75
    endloop
  endfacet
  facet normal 0 0 -1
    outer loop
      vertex 10.4968 3.70305 -2.75
      vertex 17 7 -2.75
      vertex 11.1553 2.56244 -2.75
    endloop
  endfacet
  facet normal 0 0 -1
    outer loop
      vertex 9.61552 4.68181 -2.75
      vertex 17 7 -2.75
      vertex 10.4968 3.70305 -2.75
    endloop
  endfacet
  facet normal 0 0 -1
    outer loop
      vertex 8.55 5.45596 -2.75
      vertex 17 7 -2.75
      vertex 9.61552 4.68181 -2.75
    endloop
  endfacet
  facet normal 0 0 -1
    outer loop
      vertex 7.34681 5.99166 -2.75
      vertex 17 7 -2.75
      vertex 8.55 5.45596 -2.75
    endloop
  endfacet
  facet normal 0 0 -1
    outer loop
      vertex 6.05853 6.26549 -2.75
      vertex 17 7 -2.75
      vertex 7.34681 5.99166 -2.75
    endloop
  endfacet
  facet normal 0 0 -1
    outer loop
      vertex 4.74147 6.26549 -2.75
      vertex 17 7 -2.75
      vertex 6.05853 6.26549 -2.75
    endloop
  endfacet
  facet normal 0 0 -1
    outer loop
      vertex -3.5 3.1 -2.75
      vertex 0.303192 3.70305 -2.75
      vertex -0.0449767 3.1 -2.75
    endloop
  endfacet
  facet normal 0 0 -1
    outer loop
      vertex -3.5 3.1 -2.75
      vertex 1.18448 4.68181 -2.75
      vertex 0.303192 3.70305 -2.75
    endloop
  endfacet
  facet normal 0 0 -1
    outer loop
      vertex -3.5 3.1 -2.75
      vertex 2.25 5.45596 -2.75
      vertex 1.18448 4.68181 -2.75
    endloop
  endfacet
  facet normal 0 0 -1
    outer loop
      vertex -17 7 -2.75
      vertex 2.25 5.45596 -2.75
      vertex -3.5 3.1 -2.75
    endloop
  endfacet
  facet normal 0 0 -1
    outer loop
      vertex -13.6197 0.18712 -2.75
      vertex -3.5 3.1 -2.75
      vertex -13.6 0 -2.75
    endloop
  endfacet
  facet normal 0 0 -1
    outer loop
      vertex -13.6778 0.366062 -2.75
      vertex -3.5 3.1 -2.75
      vertex -13.6197 0.18712 -2.75
    endloop
  endfacet
  facet normal 0 0 -1
    outer loop
      vertex -13.7719 0.529006 -2.75
      vertex -3.5 3.1 -2.75
      vertex -13.6778 0.366062 -2.75
    endloop
  endfacet
  facet normal 0 0 -1
    outer loop
      vertex -13.8978 0.66883 -2.75
      vertex -3.5 3.1 -2.75
      vertex -13.7719 0.529006 -2.75
    endloop
  endfacet
  facet normal 0 0 -1
    outer loop
      vertex -14.05 0.779423 -2.75
      vertex -3.5 3.1 -2.75
      vertex -13.8978 0.66883 -2.75
    endloop
  endfacet
  facet normal -0 0 -1
    outer loop
      vertex -3.5 3.1 -2.75
      vertex -14.05 0.779423 -2.75
      vertex -17 7 -2.75
    endloop
  endfacet
  facet normal 0 0 -1
    outer loop
      vertex -17 7 -2.75
      vertex -14.05 0.779423 -2.75
      vertex -14.2219 0.85595 -2.75
    endloop
  endfacet
  facet normal 0 0 -1
    outer loop
      vertex -17 7 -2.75
      vertex -14.2219 0.85595 -2.75
      vertex -14.4059 0.895069 -2.75
    endloop
  endfacet
  facet normal 0 0 -1
    outer loop
      vertex -17 7 -2.75
      vertex -14.4059 0.895069 -2.75
      vertex -14.5941 0.895069 -2.75
    endloop
  endfacet
  facet normal 0 0 -1
    outer loop
      vertex -17 7 -2.75
      vertex -14.5941 0.895069 -2.75
      vertex -14.7781 0.85595 -2.75
    endloop
  endfacet
  facet normal 0 0 -1
    outer loop
      vertex -17 7 -2.75
      vertex -15.4 0 -2.75
      vertex -17 -7 -2.75
    endloop
  endfacet
  facet normal 0 0 -1
    outer loop
      vertex 4.74147 6.26549 -2.75
      vertex -17 7 -2.75
      vertex 17 7 -2.75
    endloop
  endfacet
  facet normal 0 0 -1
    outer loop
      vertex 3.45319 5.99166 -2.75
      vertex -17 7 -2.75
      vertex 4.74147 6.26549 -2.75
    endloop
  endfacet
  facet normal 0 0 -1
    outer loop
      vertex 2.25 5.45596 -2.75
      vertex -17 7 -2.75
      vertex 3.45319 5.99166 -2.75
    endloop
  endfacet
  facet normal 0 0 -1
    outer loop
      vertex -14.95 0.779423 -2.75
      vertex -17 7 -2.75
      vertex -14.7781 0.85595 -2.75
    endloop
  endfacet
  facet normal 0 0 -1
    outer loop
      vertex -15.1022 0.66883 -2.75
      vertex -17 7 -2.75
      vertex -14.95 0.779423 -2.75
    endloop
  endfacet
  facet normal 0 0 -1
    outer loop
      vertex -15.2281 0.529006 -2.75
      vertex -17 7 -2.75
      vertex -15.1022 0.66883 -2.75
    endloop
  endfacet
  facet normal 0 0 -1
    outer loop
      vertex -15.3222 0.366062 -2.75
      vertex -17 7 -2.75
      vertex -15.2281 0.529006 -2.75
    endloop
  endfacet
  facet normal 0 0 -1
    outer loop
      vertex -15.3803 0.18712 -2.75
      vertex -17 7 -2.75
      vertex -15.3222 0.366062 -2.75
    endloop
  endfacet
  facet normal 0 0 -1
    outer loop
      vertex -15.4 0 -2.75
      vertex -17 7 -2.75
      vertex -15.3803 0.18712 -2.75
    endloop
  endfacet
  facet normal 0 -1 0
    outer loop
      vertex -17 -7 -2.75
      vertex 17 -7 2.75
      vertex -17 -7 2.75
    endloop
  endfacet
  facet normal 0 -1 -0
    outer loop
      vertex 17 -7 2.75
      vertex -17 -7 -2.75
      vertex 17 -7 -2.75
    endloop
  endfacet
  facet normal -0.866025 -0.5 0
    outer loop
      vertex 11.1553 2.56244 -2.75
      vertex 10.4968 3.70305 -1.5
      vertex 10.4968 3.70305 -2.75
    endloop
  endfacet
  facet normal -0.866025 -0.5 0
    outer loop
      vertex 10.4968 3.70305 -1.5
      vertex 11.1553 2.56244 -2.75
      vertex 11.1553 2.56244 -1.5
    endloop
  endfacet
  facet normal -0.951057 -0.309017 0
    outer loop
      vertex 11.5623 1.30984 -2.75
      vertex 11.1553 2.56244 -1.5
      vertex 11.1553 2.56244 -2.75
    endloop
  endfacet
  facet normal -0.951057 -0.309017 0
    outer loop
      vertex 11.1553 2.56244 -1.5
      vertex 11.5623 1.30984 -2.75
      vertex 11.5623 1.30984 -1.5
    endloop
  endfacet
  facet normal -0.207912 -0.978148 0
    outer loop
      vertex 6.05853 6.26549 -2.75
      vertex 7.34681 5.99166 -1.5
      vertex 6.05853 6.26549 -1.5
    endloop
  endfacet
  facet normal -0.207912 -0.978148 -0
    outer loop
      vertex 7.34681 5.99166 -1.5
      vertex 6.05853 6.26549 -2.75
      vertex 7.34681 5.99166 -2.75
    endloop
  endfacet
  facet normal -0.406737 -0.913545 0
    outer loop
      vertex 7.34681 5.99166 -2.75
      vertex 8.55 5.45596 -1.5
      vertex 7.34681 5.99166 -1.5
    endloop
  endfacet
  facet normal -0.406737 -0.913545 -0
    outer loop
      vertex 8.55 5.45596 -1.5
      vertex 7.34681 5.99166 -2.75
      vertex 8.55 5.45596 -2.75
    endloop
  endfacet
  facet normal 0.406737 -0.913545 0
    outer loop
      vertex 2.25 5.45596 -2.75
      vertex 3.45319 5.99166 -1.5
      vertex 2.25 5.45596 -1.5
    endloop
  endfacet
  facet normal 0.406737 -0.913545 0
    outer loop
      vertex 3.45319 5.99166 -1.5
      vertex 2.25 5.45596 -2.75
      vertex 3.45319 5.99166 -2.75
    endloop
  endfacet
  facet normal 0.866026 -0.499999 0
    outer loop
      vertex -0.0449767 3.1 -1.5
      vertex 0.303192 3.70305 -2.75
      vertex 0.303192 3.70305 -1.5
    endloop
  endfacet
  facet normal 0.866026 -0.499999 0
    outer loop
      vertex 0.303192 3.70305 -2.75
      vertex -0.0449767 3.1 -1.5
      vertex -0.0449767 3.1 -2.75
    endloop
  endfacet
  facet normal -0.994522 0.104529 0
    outer loop
      vertex 11.5623 -1.30984 -2.75
      vertex 11.7 0 -1.5
      vertex 11.7 0 -2.75
    endloop
  endfacet
  facet normal -0.994522 0.104529 0
    outer loop
      vertex 11.7 0 -1.5
      vertex 11.5623 -1.30984 -2.75
      vertex 11.5623 -1.30984 -1.5
    endloop
  endfacet
  facet normal -0.207912 0.978148 0
    outer loop
      vertex 7.34681 -5.99166 -2.75
      vertex 6.05853 -6.26549 -1.5
      vertex 7.34681 -5.99166 -1.5
    endloop
  endfacet
  facet normal -0.207912 0.978148 0
    outer loop
      vertex 6.05853 -6.26549 -1.5
      vertex 7.34681 -5.99166 -2.75
      vertex 6.05853 -6.26549 -2.75
    endloop
  endfacet
  facet normal -0.743145 -0.66913 0
    outer loop
      vertex 10.4968 3.70305 -2.75
      vertex 9.61552 4.68181 -1.5
      vertex 9.61552 4.68181 -2.75
    endloop
  endfacet
  facet normal -0.743145 -0.66913 0
    outer loop
      vertex 9.61552 4.68181 -1.5
      vertex 10.4968 3.70305 -2.75
      vertex 10.4968 3.70305 -1.5
    endloop
  endfacet
  facet normal 0 -1 0
    outer loop
      vertex 4.74147 6.26549 -2.75
      vertex 6.05853 6.26549 -1.5
      vertex 4.74147 6.26549 -1.5
    endloop
  endfacet
  facet normal 0 -1 -0
    outer loop
      vertex 6.05853 6.26549 -1.5
      vertex 4.74147 6.26549 -2.75
      vertex 6.05853 6.26549 -2.75
    endloop
  endfacet
  facet normal -0.587785 -0.809017 0
    outer loop
      vertex 8.55 5.45596 -2.75
      vertex 9.61552 4.68181 -1.5
      vertex 8.55 5.45596 -1.5
    endloop
  endfacet
  facet normal -0.587785 -0.809017 -0
    outer loop
      vertex 9.61552 4.68181 -1.5
      vertex 8.55 5.45596 -2.75
      vertex 9.61552 4.68181 -2.75
    endloop
  endfacet
  facet normal 0.587785 -0.809017 0
    outer loop
      vertex 1.18448 4.68181 -2.75
      vertex 2.25 5.45596 -1.5
      vertex 1.18448 4.68181 -1.5
    endloop
  endfacet
  facet normal 0.587785 -0.809017 0
    outer loop
      vertex 2.25 5.45596 -1.5
      vertex 1.18448 4.68181 -2.75
      vertex 2.25 5.45596 -2.75
    endloop
  endfacet
  facet normal 0.207912 -0.978148 0
    outer loop
      vertex 3.45319 5.99166 -2.75
      vertex 4.74147 6.26549 -1.5
      vertex 3.45319 5.99166 -1.5
    endloop
  endfacet
  facet normal 0.207912 -0.978148 0
    outer loop
      vertex 4.74147 6.26549 -1.5
      vertex 3.45319 5.99166 -2.75
      vertex 4.74147 6.26549 -2.75
    endloop
  endfacet
  facet normal 0.743145 -0.669131 0
    outer loop
      vertex 0.303192 3.70305 -1.5
      vertex 1.18448 4.68181 -2.75
      vertex 1.18448 4.68181 -1.5
    endloop
  endfacet
  facet normal 0.743145 -0.669131 0
    outer loop
      vertex 1.18448 4.68181 -2.75
      vertex 0.303192 3.70305 -1.5
      vertex 0.303192 3.70305 -2.75
    endloop
  endfacet
  facet normal -0.994522 -0.104529 0
    outer loop
      vertex 11.7 0 -2.75
      vertex 11.5623 1.30984 -1.5
      vertex 11.5623 1.30984 -2.75
    endloop
  endfacet
  facet normal -0.994522 -0.104529 0
    outer loop
      vertex 11.5623 1.30984 -1.5
      vertex 11.7 0 -2.75
      vertex 11.7 0 -1.5
    endloop
  endfacet
  facet normal -0.587785 0.809017 0
    outer loop
      vertex 9.61552 -4.68181 -2.75
      vertex 8.55 -5.45596 -1.5
      vertex 9.61552 -4.68181 -1.5
    endloop
  endfacet
  facet normal -0.587785 0.809017 0
    outer loop
      vertex 8.55 -5.45596 -1.5
      vertex 9.61552 -4.68181 -2.75
      vertex 8.55 -5.45596 -2.75
    endloop
  endfacet
  facet normal -0.951057 0.309017 0
    outer loop
      vertex 11.1553 -2.56244 -2.75
      vertex 11.5623 -1.30984 -1.5
      vertex 11.5623 -1.30984 -2.75
    endloop
  endfacet
  facet normal -0.951057 0.309017 0
    outer loop
      vertex 11.5623 -1.30984 -1.5
      vertex 11.1553 -2.56244 -2.75
      vertex 11.1553 -2.56244 -1.5
    endloop
  endfacet
  facet normal 0.866026 0.499999 0
    outer loop
      vertex 0.303192 -3.70305 -1.5
      vertex -0.0449767 -3.1 -2.75
      vertex -0.0449767 -3.1 -1.5
    endloop
  endfacet
  facet normal 0.866026 0.499999 0
    outer loop
      vertex -0.0449767 -3.1 -2.75
      vertex 0.303192 -3.70305 -1.5
      vertex 0.303192 -3.70305 -2.75
    endloop
  endfacet
  facet normal 0 1 -0
    outer loop
      vertex 6.05853 -6.26549 -2.75
      vertex 4.74147 -6.26549 -1.5
      vertex 6.05853 -6.26549 -1.5
    endloop
  endfacet
  facet normal 0 1 0
    outer loop
      vertex 4.74147 -6.26549 -1.5
      vertex 6.05853 -6.26549 -2.75
      vertex 4.74147 -6.26549 -2.75
    endloop
  endfacet
  facet normal -0.406737 0.913545 0
    outer loop
      vertex 8.55 -5.45596 -2.75
      vertex 7.34681 -5.99166 -1.5
      vertex 8.55 -5.45596 -1.5
    endloop
  endfacet
  facet normal -0.406737 0.913545 0
    outer loop
      vertex 7.34681 -5.99166 -1.5
      vertex 8.55 -5.45596 -2.75
      vertex 7.34681 -5.99166 -2.75
    endloop
  endfacet
  facet normal -0.743145 0.66913 0
    outer loop
      vertex 9.61552 -4.68181 -2.75
      vertex 10.4968 -3.70305 -1.5
      vertex 10.4968 -3.70305 -2.75
    endloop
  endfacet
  facet normal -0.743145 0.66913 0
    outer loop
      vertex 10.4968 -3.70305 -1.5
      vertex 9.61552 -4.68181 -2.75
      vertex 9.61552 -4.68181 -1.5
    endloop
  endfacet
  facet normal -0.866025 0.5 0
    outer loop
      vertex 10.4968 -3.70305 -2.75
      vertex 11.1553 -2.56244 -1.5
      vertex 11.1553 -2.56244 -2.75
    endloop
  endfacet
  facet normal -0.866025 0.5 0
    outer loop
      vertex 11.1553 -2.56244 -1.5
      vertex 10.4968 -3.70305 -2.75
      vertex 10.4968 -3.70305 -1.5
    endloop
  endfacet
  facet normal 0.587785 0.809017 -0
    outer loop
      vertex 2.25 -5.45596 -2.75
      vertex 1.18448 -4.68181 -1.5
      vertex 2.25 -5.45596 -1.5
    endloop
  endfacet
  facet normal 0.587785 0.809017 0
    outer loop
      vertex 1.18448 -4.68181 -1.5
      vertex 2.25 -5.45596 -2.75
      vertex 1.18448 -4.68181 -2.75
    endloop
  endfacet
  facet normal 0.406736 0.913546 -0
    outer loop
      vertex 3.45319 -5.99166 -2.75
      vertex 2.25 -5.45596 -1.5
      vertex 3.45319 -5.99166 -1.5
    endloop
  endfacet
  facet normal 0.406736 0.913546 0
    outer loop
      vertex 2.25 -5.45596 -1.5
      vertex 3.45319 -5.99166 -2.75
      vertex 2.25 -5.45596 -2.75
    endloop
  endfacet
  facet normal 0.207912 0.978148 -0
    outer loop
      vertex 4.74147 -6.26549 -2.75
      vertex 3.45319 -5.99166 -1.5
      vertex 4.74147 -6.26549 -1.5
    endloop
  endfacet
  facet normal 0.207912 0.978148 0
    outer loop
      vertex 3.45319 -5.99166 -1.5
      vertex 4.74147 -6.26549 -2.75
      vertex 3.45319 -5.99166 -2.75
    endloop
  endfacet
  facet normal 0.743145 0.669131 0
    outer loop
      vertex 1.18448 -4.68181 -1.5
      vertex 0.303192 -3.70305 -2.75
      vertex 0.303192 -3.70305 -1.5
    endloop
  endfacet
  facet normal 0.743145 0.669131 0
    outer loop
      vertex 0.303192 -3.70305 -2.75
      vertex 1.18448 -4.68181 -1.5
      vertex 1.18448 -4.68181 -2.75
    endloop
  endfacet
  facet normal 1 -0 0
    outer loop
      vertex -3.5 -3.1 -1.5
      vertex -3.5 3.1 -2.75
      vertex -3.5 3.1 -1.5
    endloop
  endfacet
  facet normal 1 0 0
    outer loop
      vertex -3.5 3.1 -2.75
      vertex -3.5 -3.1 -1.5
      vertex -3.5 -3.1 -2.75
    endloop
  endfacet
  facet normal 0 1 -0
    outer loop
      vertex -0.0449767 -3.1 -2.75
      vertex -3.5 -3.1 -1.5
      vertex -0.0449767 -3.1 -1.5
    endloop
  endfacet
  facet normal 0 1 0
    outer loop
      vertex -3.5 -3.1 -1.5
      vertex -0.0449767 -3.1 -2.75
      vertex -3.5 -3.1 -2.75
    endloop
  endfacet
  facet normal 0 -1 0
    outer loop
      vertex -3.5 3.1 -2.75
      vertex -0.0449767 3.1 -1.5
      vertex -3.5 3.1 -1.5
    endloop
  endfacet
  facet normal 0 -1 -0
    outer loop
      vertex -0.0449767 3.1 -1.5
      vertex -3.5 3.1 -2.75
      vertex -0.0449767 3.1 -2.75
    endloop
  endfacet
  facet normal 1 -0 0
    outer loop
      vertex -12 -6.3 2.75
      vertex -12 6.3 -1.5
      vertex -12 6.3 2.75
    endloop
  endfacet
  facet normal 1 0 0
    outer loop
      vertex -12 6.3 -1.5
      vertex -12 -6.3 2.75
      vertex -12 -6.3 -1.5
    endloop
  endfacet
  facet normal -1 0 0
    outer loop
      vertex 12 -6.3 -1.5
      vertex 12 6.3 2.75
      vertex 12 6.3 -1.5
    endloop
  endfacet
  facet normal -1 -0 0
    outer loop
      vertex 12 6.3 2.75
      vertex 12 -6.3 -1.5
      vertex 12 -6.3 2.75
    endloop
  endfacet
  facet normal 0 0 1
    outer loop
      vertex 12 6.3 -1.5
      vertex 11.7 0 -1.5
      vertex 12 -6.3 -1.5
    endloop
  endfacet
  facet normal 0 0 1
    outer loop
      vertex 12 6.3 -1.5
      vertex 11.5623 1.30984 -1.5
      vertex 11.7 0 -1.5
    endloop
  endfacet
  facet normal 0 0 1
    outer loop
      vertex 12 6.3 -1.5
      vertex 11.1553 2.56244 -1.5
      vertex 11.5623 1.30984 -1.5
    endloop
  endfacet
  facet normal 0 0 1
    outer loop
      vertex 12 6.3 -1.5
      vertex 10.4968 3.70305 -1.5
      vertex 11.1553 2.56244 -1.5
    endloop
  endfacet
  facet normal 0 0 1
    outer loop
      vertex 12 6.3 -1.5
      vertex 9.61552 4.68181 -1.5
      vertex 10.4968 3.70305 -1.5
    endloop
  endfacet
  facet normal 0 0 1
    outer loop
      vertex 12 6.3 -1.5
      vertex 8.55 5.45596 -1.5
      vertex 9.61552 4.68181 -1.5
    endloop
  endfacet
  facet normal 0 0 1
    outer loop
      vertex 12 6.3 -1.5
      vertex 7.34681 5.99166 -1.5
      vertex 8.55 5.45596 -1.5
    endloop
  endfacet
  facet normal 0 0 1
    outer loop
      vertex 12 6.3 -1.5
      vertex 6.05853 6.26549 -1.5
      vertex 7.34681 5.99166 -1.5
    endloop
  endfacet
  facet normal 0 0 1
    outer loop
      vertex 12 6.3 -1.5
      vertex 4.74147 6.26549 -1.5
      vertex 6.05853 6.26549 -1.5
    endloop
  endfacet
  facet normal 0 0 1
    outer loop
      vertex 0.303192 3.70305 -1.5
      vertex -3.5 3.1 -1.5
      vertex -0.0449767 3.1 -1.5
    endloop
  endfacet
  facet normal 0 0 1
    outer loop
      vertex 1.18448 4.68181 -1.5
      vertex -3.5 3.1 -1.5
      vertex 0.303192 3.70305 -1.5
    endloop
  endfacet
  facet normal 0 0 1
    outer loop
      vertex 2.25 5.45596 -1.5
      vertex -3.5 3.1 -1.5
      vertex 1.18448 4.68181 -1.5
    endloop
  endfacet
  facet normal 0 0 1
    outer loop
      vertex -12 6.3 -1.5
      vertex 2.25 5.45596 -1.5
      vertex 3.45319 5.99166 -1.5
    endloop
  endfacet
  facet normal 0 0 1
    outer loop
      vertex -3.5 3.1 -1.5
      vertex -12 6.3 -1.5
      vertex -3.5 -3.1 -1.5
    endloop
  endfacet
  facet normal 0 0 1
    outer loop
      vertex 2.25 5.45596 -1.5
      vertex -12 6.3 -1.5
      vertex -3.5 3.1 -1.5
    endloop
  endfacet
  facet normal 0 0 1
    outer loop
      vertex 4.74147 6.26549 -1.5
      vertex -12 6.3 -1.5
      vertex 3.45319 5.99166 -1.5
    endloop
  endfacet
  facet normal -0 0 1
    outer loop
      vertex -12 6.3 -1.5
      vertex 4.74147 6.26549 -1.5
      vertex 12 6.3 -1.5
    endloop
  endfacet
  facet normal -0 0 1
    outer loop
      vertex 11.5623 -1.30984 -1.5
      vertex 12 -6.3 -1.5
      vertex 11.7 0 -1.5
    endloop
  endfacet
  facet normal -0 0 1
    outer loop
      vertex 11.1553 -2.56244 -1.5
      vertex 12 -6.3 -1.5
      vertex 11.5623 -1.30984 -1.5
    endloop
  endfacet
  facet normal -0 0 1
    outer loop
      vertex 10.4968 -3.70305 -1.5
      vertex 12 -6.3 -1.5
      vertex 11.1553 -2.56244 -1.5
    endloop
  endfacet
  facet normal -0 0 1
    outer loop
      vertex 9.61552 -4.68181 -1.5
      vertex 12 -6.3 -1.5
      vertex 10.4968 -3.70305 -1.5
    endloop
  endfacet
  facet normal -0 0 1
    outer loop
      vertex 8.55 -5.45596 -1.5
      vertex 12 -6.3 -1.5
      vertex 9.61552 -4.68181 -1.5
    endloop
  endfacet
  facet normal -0 0 1
    outer loop
      vertex 7.34681 -5.99166 -1.5
      vertex 12 -6.3 -1.5
      vertex 8.55 -5.45596 -1.5
    endloop
  endfacet
  facet normal -0 0 1
    outer loop
      vertex 6.05853 -6.26549 -1.5
      vertex 12 -6.3 -1.5
      vertex 7.34681 -5.99166 -1.5
    endloop
  endfacet
  facet normal -0 0 1
    outer loop
      vertex 4.74147 -6.26549 -1.5
      vertex 12 -6.3 -1.5
      vertex 6.05853 -6.26549 -1.5
    endloop
  endfacet
  facet normal -0 0 1
    outer loop
      vertex -3.5 -3.1 -1.5
      vertex 0.303192 -3.70305 -1.5
      vertex -0.0449767 -3.1 -1.5
    endloop
  endfacet
  facet normal 0 0 1
    outer loop
      vertex -3.5 -3.1 -1.5
      vertex 1.18448 -4.68181 -1.5
      vertex 0.303192 -3.70305 -1.5
    endloop
  endfacet
  facet normal 0 0 1
    outer loop
      vertex -3.5 -3.1 -1.5
      vertex 2.25 -5.45596 -1.5
      vertex 1.18448 -4.68181 -1.5
    endloop
  endfacet
  facet normal 0 0 1
    outer loop
      vertex -12 -6.3 -1.5
      vertex 2.25 -5.45596 -1.5
      vertex -3.5 -3.1 -1.5
    endloop
  endfacet
  facet normal 0 0 1
    outer loop
      vertex 4.74147 -6.26549 -1.5
      vertex -12 -6.3 -1.5
      vertex 12 -6.3 -1.5
    endloop
  endfacet
  facet normal 0 0 1
    outer loop
      vertex 3.45319 -5.99166 -1.5
      vertex -12 -6.3 -1.5
      vertex 4.74147 -6.26549 -1.5
    endloop
  endfacet
  facet normal 0 0 1
    outer loop
      vertex 2.25 -5.45596 -1.5
      vertex -12 -6.3 -1.5
      vertex 3.45319 -5.99166 -1.5
    endloop
  endfacet
  facet normal 0 0 1
    outer loop
      vertex -12 -6.3 -1.5
      vertex -3.5 -3.1 -1.5
      vertex -12 6.3 -1.5
    endloop
  endfacet
  facet normal 0 1 -0
    outer loop
      vertex 12 -6.3 -1.5
      vertex -12 -6.3 2.75
      vertex 12 -6.3 2.75
    endloop
  endfacet
  facet normal 0 1 0
    outer loop
      vertex -12 -6.3 2.75
      vertex 12 -6.3 -1.5
      vertex -12 -6.3 -1.5
    endloop
  endfacet
  facet normal 0 -1 0
    outer loop
      vertex -12 6.3 -1.5
      vertex 12 6.3 2.75
      vertex -12 6.3 2.75
    endloop
  endfacet
  facet normal 0 -1 -0
    outer loop
      vertex 12 6.3 2.75
      vertex -12 6.3 -1.5
      vertex 12 6.3 -1.5
    endloop
  endfacet
  facet normal -0.866026 -0.499998 0
    outer loop
      vertex 15.3222 0.366062 -2.75
      vertex 15.2281 0.529006 2.75
      vertex 15.2281 0.529006 -2.75
    endloop
  endfacet
  facet normal -0.866026 -0.499998 0
    outer loop
      vertex 15.2281 0.529006 2.75
      vertex 15.3222 0.366062 -2.75
      vertex 15.3222 0.366062 2.75
    endloop
  endfacet
  facet normal 0 -1 0
    outer loop
      vertex 14.4059 0.895069 -2.75
      vertex 14.5941 0.895069 2.75
      vertex 14.4059 0.895069 2.75
    endloop
  endfacet
  facet normal 0 -1 -0
    outer loop
      vertex 14.5941 0.895069 2.75
      vertex 14.4059 0.895069 -2.75
      vertex 14.5941 0.895069 -2.75
    endloop
  endfacet
  facet normal -0.743144 -0.669132 0
    outer loop
      vertex 15.2281 0.529006 -2.75
      vertex 15.1022 0.66883 2.75
      vertex 15.1022 0.66883 -2.75
    endloop
  endfacet
  facet normal -0.743144 -0.669132 0
    outer loop
      vertex 15.1022 0.66883 2.75
      vertex 15.2281 0.529006 -2.75
      vertex 15.2281 0.529006 2.75
    endloop
  endfacet
  facet normal -0.207911 -0.978148 0
    outer loop
      vertex 14.5941 0.895069 -2.75
      vertex 14.7781 0.85595 2.75
      vertex 14.5941 0.895069 2.75
    endloop
  endfacet
  facet normal -0.207911 -0.978148 -0
    outer loop
      vertex 14.7781 0.85595 2.75
      vertex 14.5941 0.895069 -2.75
      vertex 14.7781 0.85595 -2.75
    endloop
  endfacet
  facet normal 0.406735 -0.913546 0
    outer loop
      vertex 14.05 0.779423 -2.75
      vertex 14.2219 0.85595 2.75
      vertex 14.05 0.779423 2.75
    endloop
  endfacet
  facet normal 0.406735 -0.913546 0
    outer loop
      vertex 14.2219 0.85595 2.75
      vertex 14.05 0.779423 -2.75
      vertex 14.2219 0.85595 -2.75
    endloop
  endfacet
  facet normal -0.994522 0.104531 0
    outer loop
      vertex 15.3803 -0.18712 -2.75
      vertex 15.4 0 2.75
      vertex 15.4 0 -2.75
    endloop
  endfacet
  facet normal -0.994522 0.104531 0
    outer loop
      vertex 15.4 0 2.75
      vertex 15.3803 -0.18712 -2.75
      vertex 15.3803 -0.18712 2.75
    endloop
  endfacet
  facet normal -0.207911 0.978148 0
    outer loop
      vertex 14.7781 -0.85595 -2.75
      vertex 14.5941 -0.895069 2.75
      vertex 14.7781 -0.85595 2.75
    endloop
  endfacet
  facet normal -0.207911 0.978148 0
    outer loop
      vertex 14.5941 -0.895069 2.75
      vertex 14.7781 -0.85595 -2.75
      vertex 14.5941 -0.895069 -2.75
    endloop
  endfacet
  facet normal -0.951056 -0.309017 0
    outer loop
      vertex 15.3803 0.18712 -2.75
      vertex 15.3222 0.366062 2.75
      vertex 15.3222 0.366062 -2.75
    endloop
  endfacet
  facet normal -0.951056 -0.309017 0
    outer loop
      vertex 15.3222 0.366062 2.75
      vertex 15.3803 0.18712 -2.75
      vertex 15.3803 0.18712 2.75
    endloop
  endfacet
  facet normal -0.587788 -0.809015 0
    outer loop
      vertex 14.95 0.779423 -2.75
      vertex 15.1022 0.66883 2.75
      vertex 14.95 0.779423 2.75
    endloop
  endfacet
  facet normal -0.587788 -0.809015 -0
    outer loop
      vertex 15.1022 0.66883 2.75
      vertex 14.95 0.779423 -2.75
      vertex 15.1022 0.66883 -2.75
    endloop
  endfacet
  facet normal -0.406735 -0.913546 0
    outer loop
      vertex 14.7781 0.85595 -2.75
      vertex 14.95 0.779423 2.75
      vertex 14.7781 0.85595 2.75
    endloop
  endfacet
  facet normal -0.406735 -0.913546 -0
    outer loop
      vertex 14.95 0.779423 2.75
      vertex 14.7781 0.85595 -2.75
      vertex 14.95 0.779423 -2.75
    endloop
  endfacet
  facet normal 0.994522 -0.104531 0
    outer loop
      vertex 13.6 0 2.75
      vertex 13.6197 0.18712 -2.75
      vertex 13.6197 0.18712 2.75
    endloop
  endfacet
  facet normal 0.994522 -0.104531 0
    outer loop
      vertex 13.6197 0.18712 -2.75
      vertex 13.6 0 2.75
      vertex 13.6 0 -2.75
    endloop
  endfacet
  facet normal 0.866026 -0.499998 0
    outer loop
      vertex 13.6778 0.366062 2.75
      vertex 13.7719 0.529006 -2.75
      vertex 13.7719 0.529006 2.75
    endloop
  endfacet
  facet normal 0.866026 -0.499998 0
    outer loop
      vertex 13.7719 0.529006 -2.75
      vertex 13.6778 0.366062 2.75
      vertex 13.6778 0.366062 -2.75
    endloop
  endfacet
  facet normal 0.587788 -0.809015 0
    outer loop
      vertex 13.8978 0.66883 -2.75
      vertex 14.05 0.779423 2.75
      vertex 13.8978 0.66883 2.75
    endloop
  endfacet
  facet normal 0.587788 -0.809015 0
    outer loop
      vertex 14.05 0.779423 2.75
      vertex 13.8978 0.66883 -2.75
      vertex 14.05 0.779423 -2.75
    endloop
  endfacet
  facet normal 0.207911 -0.978148 0
    outer loop
      vertex 14.2219 0.85595 -2.75
      vertex 14.4059 0.895069 2.75
      vertex 14.2219 0.85595 2.75
    endloop
  endfacet
  facet normal 0.207911 -0.978148 0
    outer loop
      vertex 14.4059 0.895069 2.75
      vertex 14.2219 0.85595 -2.75
      vertex 14.4059 0.895069 -2.75
    endloop
  endfacet
  facet normal 0.743144 -0.669132 0
    outer loop
      vertex 13.7719 0.529006 2.75
      vertex 13.8978 0.66883 -2.75
      vertex 13.8978 0.66883 2.75
    endloop
  endfacet
  facet normal 0.743144 -0.669132 0
    outer loop
      vertex 13.8978 0.66883 -2.75
      vertex 13.7719 0.529006 2.75
      vertex 13.7719 0.529006 -2.75
    endloop
  endfacet
  facet normal -0.994522 -0.104531 0
    outer loop
      vertex 15.4 0 -2.75
      vertex 15.3803 0.18712 2.75
      vertex 15.3803 0.18712 -2.75
    endloop
  endfacet
  facet normal -0.994522 -0.104531 0
    outer loop
      vertex 15.3803 0.18712 2.75
      vertex 15.4 0 -2.75
      vertex 15.4 0 2.75
    endloop
  endfacet
  facet normal -0.951056 0.309017 0
    outer loop
      vertex 15.3222 -0.366062 -2.75
      vertex 15.3803 -0.18712 2.75
      vertex 15.3803 -0.18712 -2.75
    endloop
  endfacet
  facet normal -0.951056 0.309017 0
    outer loop
      vertex 15.3803 -0.18712 2.75
      vertex 15.3222 -0.366062 -2.75
      vertex 15.3222 -0.366062 2.75
    endloop
  endfacet
  facet normal 0.866026 0.499998 0
    outer loop
      vertex 13.7719 -0.529006 2.75
      vertex 13.6778 -0.366062 -2.75
      vertex 13.6778 -0.366062 2.75
    endloop
  endfacet
  facet normal 0.866026 0.499998 0
    outer loop
      vertex 13.6778 -0.366062 -2.75
      vertex 13.7719 -0.529006 2.75
      vertex 13.7719 -0.529006 -2.75
    endloop
  endfacet
  facet normal -0.587788 0.809015 0
    outer loop
      vertex 15.1022 -0.66883 -2.75
      vertex 14.95 -0.779423 2.75
      vertex 15.1022 -0.66883 2.75
    endloop
  endfacet
  facet normal -0.587788 0.809015 0
    outer loop
      vertex 14.95 -0.779423 2.75
      vertex 15.1022 -0.66883 -2.75
      vertex 14.95 -0.779423 -2.75
    endloop
  endfacet
  facet normal 0.951056 -0.309017 0
    outer loop
      vertex 13.6197 0.18712 2.75
      vertex 13.6778 0.366062 -2.75
      vertex 13.6778 0.366062 2.75
    endloop
  endfacet
  facet normal 0.951056 -0.309017 0
    outer loop
      vertex 13.6778 0.366062 -2.75
      vertex 13.6197 0.18712 2.75
      vertex 13.6197 0.18712 -2.75
    endloop
  endfacet
  facet normal -0.866026 0.499998 0
    outer loop
      vertex 15.2281 -0.529006 -2.75
      vertex 15.3222 -0.366062 2.75
      vertex 15.3222 -0.366062 -2.75
    endloop
  endfacet
  facet normal -0.866026 0.499998 0
    outer loop
      vertex 15.3222 -0.366062 2.75
      vertex 15.2281 -0.529006 -2.75
      vertex 15.2281 -0.529006 2.75
    endloop
  endfacet
  facet normal 0 1 -0
    outer loop
      vertex 14.5941 -0.895069 -2.75
      vertex 14.4059 -0.895069 2.75
      vertex 14.5941 -0.895069 2.75
    endloop
  endfacet
  facet normal 0 1 0
    outer loop
      vertex 14.4059 -0.895069 2.75
      vertex 14.5941 -0.895069 -2.75
      vertex 14.4059 -0.895069 -2.75
    endloop
  endfacet
  facet normal -0.406735 0.913546 0
    outer loop
      vertex 14.95 -0.779423 -2.75
      vertex 14.7781 -0.85595 2.75
      vertex 14.95 -0.779423 2.75
    endloop
  endfacet
  facet normal -0.406735 0.913546 0
    outer loop
      vertex 14.7781 -0.85595 2.75
      vertex 14.95 -0.779423 -2.75
      vertex 14.7781 -0.85595 -2.75
    endloop
  endfacet
  facet normal 0.951056 0.309017 0
    outer loop
      vertex 13.6778 -0.366062 2.75
      vertex 13.6197 -0.18712 -2.75
      vertex 13.6197 -0.18712 2.75
    endloop
  endfacet
  facet normal 0.951056 0.309017 0
    outer loop
      vertex 13.6197 -0.18712 -2.75
      vertex 13.6778 -0.366062 2.75
      vertex 13.6778 -0.366062 -2.75
    endloop
  endfacet
  facet normal 0.994522 0.104531 0
    outer loop
      vertex 13.6197 -0.18712 2.75
      vertex 13.6 0 -2.75
      vertex 13.6 0 2.75
    endloop
  endfacet
  facet normal 0.994522 0.104531 0
    outer loop
      vertex 13.6 0 -2.75
      vertex 13.6197 -0.18712 2.75
      vertex 13.6197 -0.18712 -2.75
    endloop
  endfacet
  facet normal 0.743144 0.669132 0
    outer loop
      vertex 13.8978 -0.66883 2.75
      vertex 13.7719 -0.529006 -2.75
      vertex 13.7719 -0.529006 2.75
    endloop
  endfacet
  facet normal 0.743144 0.669132 0
    outer loop
      vertex 13.7719 -0.529006 -2.75
      vertex 13.8978 -0.66883 2.75
      vertex 13.8978 -0.66883 -2.75
    endloop
  endfacet
  facet normal -0.743144 0.669132 0
    outer loop
      vertex 15.1022 -0.66883 -2.75
      vertex 15.2281 -0.529006 2.75
      vertex 15.2281 -0.529006 -2.75
    endloop
  endfacet
  facet normal -0.743144 0.669132 0
    outer loop
      vertex 15.2281 -0.529006 2.75
      vertex 15.1022 -0.66883 -2.75
      vertex 15.1022 -0.66883 2.75
    endloop
  endfacet
  facet normal 0.587788 0.809015 -0
    outer loop
      vertex 14.05 -0.779423 -2.75
      vertex 13.8978 -0.66883 2.75
      vertex 14.05 -0.779423 2.75
    endloop
  endfacet
  facet normal 0.587788 0.809015 0
    outer loop
      vertex 13.8978 -0.66883 2.75
      vertex 14.05 -0.779423 -2.75
      vertex 13.8978 -0.66883 -2.75
    endloop
  endfacet
  facet normal 0.406735 0.913546 -0
    outer loop
      vertex 14.2219 -0.85595 -2.75
      vertex 14.05 -0.779423 2.75
      vertex 14.2219 -0.85595 2.75
    endloop
  endfacet
  facet normal 0.406735 0.913546 0
    outer loop
      vertex 14.05 -0.779423 2.75
      vertex 14.2219 -0.85595 -2.75
      vertex 14.05 -0.779423 -2.75
    endloop
  endfacet
  facet normal 0.207911 0.978148 -0
    outer loop
      vertex 14.4059 -0.895069 -2.75
      vertex 14.2219 -0.85595 2.75
      vertex 14.4059 -0.895069 2.75
    endloop
  endfacet
  facet normal 0.207911 0.978148 0
    outer loop
      vertex 14.2219 -0.85595 2.75
      vertex 14.4059 -0.895069 -2.75
      vertex 14.2219 -0.85595 -2.75
    endloop
  endfacet
  facet normal -0.866026 -0.499998 0
    outer loop
      vertex -13.6778 0.366062 -2.75
      vertex -13.7719 0.529006 2.75
      vertex -13.7719 0.529006 -2.75
    endloop
  endfacet
  facet normal -0.866026 -0.499998 0
    outer loop
      vertex -13.7719 0.529006 2.75
      vertex -13.6778 0.366062 -2.75
      vertex -13.6778 0.366062 2.75
    endloop
  endfacet
  facet normal 0 -1 0
    outer loop
      vertex -14.5941 0.895069 -2.75
      vertex -14.4059 0.895069 2.75
      vertex -14.5941 0.895069 2.75
    endloop
  endfacet
  facet normal 0 -1 -0
    outer loop
      vertex -14.4059 0.895069 2.75
      vertex -14.5941 0.895069 -2.75
      vertex -14.4059 0.895069 -2.75
    endloop
  endfacet
  facet normal -0.743144 -0.669132 0
    outer loop
      vertex -13.7719 0.529006 -2.75
      vertex -13.8978 0.66883 2.75
      vertex -13.8978 0.66883 -2.75
    endloop
  endfacet
  facet normal -0.743144 -0.669132 0
    outer loop
      vertex -13.8978 0.66883 2.75
      vertex -13.7719 0.529006 -2.75
      vertex -13.7719 0.529006 2.75
    endloop
  endfacet
  facet normal -0.207911 -0.978148 0
    outer loop
      vertex -14.4059 0.895069 -2.75
      vertex -14.2219 0.85595 2.75
      vertex -14.4059 0.895069 2.75
    endloop
  endfacet
  facet normal -0.207911 -0.978148 -0
    outer loop
      vertex -14.2219 0.85595 2.75
      vertex -14.4059 0.895069 -2.75
      vertex -14.2219 0.85595 -2.75
    endloop
  endfacet
  facet normal 0.406735 -0.913546 0
    outer loop
      vertex -14.95 0.779423 -2.75
      vertex -14.7781 0.85595 2.75
      vertex -14.95 0.779423 2.75
    endloop
  endfacet
  facet normal 0.406735 -0.913546 0
    outer loop
      vertex -14.7781 0.85595 2.75
      vertex -14.95 0.779423 -2.75
      vertex -14.7781 0.85595 -2.75
    endloop
  endfacet
  facet normal -0.994522 0.104531 0
    outer loop
      vertex -13.6197 -0.18712 -2.75
      vertex -13.6 0 2.75
      vertex -13.6 0 -2.75
    endloop
  endfacet
  facet normal -0.994522 0.104531 0
    outer loop
      vertex -13.6 0 2.75
      vertex -13.6197 -0.18712 -2.75
      vertex -13.6197 -0.18712 2.75
    endloop
  endfacet
  facet normal -0.207911 0.978148 0
    outer loop
      vertex -14.2219 -0.85595 -2.75
      vertex -14.4059 -0.895069 2.75
      vertex -14.2219 -0.85595 2.75
    endloop
  endfacet
  facet normal -0.207911 0.978148 0
    outer loop
      vertex -14.4059 -0.895069 2.75
      vertex -14.2219 -0.85595 -2.75
      vertex -14.4059 -0.895069 -2.75
    endloop
  endfacet
  facet normal -0.951056 -0.309017 0
    outer loop
      vertex -13.6197 0.18712 -2.75
      vertex -13.6778 0.366062 2.75
      vertex -13.6778 0.366062 -2.75
    endloop
  endfacet
  facet normal -0.951056 -0.309017 0
    outer loop
      vertex -13.6778 0.366062 2.75
      vertex -13.6197 0.18712 -2.75
      vertex -13.6197 0.18712 2.75
    endloop
  endfacet
  facet normal -0.587788 -0.809015 0
    outer loop
      vertex -14.05 0.779423 -2.75
      vertex -13.8978 0.66883 2.75
      vertex -14.05 0.779423 2.75
    endloop
  endfacet
  facet normal -0.587788 -0.809015 -0
    outer loop
      vertex -13.8978 0.66883 2.75
      vertex -14.05 0.779423 -2.75
      vertex -13.8978 0.66883 -2.75
    endloop
  endfacet
  facet normal -0.406735 -0.913546 0
    outer loop
      vertex -14.2219 0.85595 -2.75
      vertex -14.05 0.779423 2.75
      vertex -14.2219 0.85595 2.75
    endloop
  endfacet
  facet normal -0.406735 -0.913546 -0
    outer loop
      vertex -14.05 0.779423 2.75
      vertex -14.2219 0.85595 -2.75
      vertex -14.05 0.779423 -2.75
    endloop
  endfacet
  facet normal 0.994522 -0.104531 0
    outer loop
      vertex -15.4 0 2.75
      vertex -15.3803 0.18712 -2.75
      vertex -15.3803 0.18712 2.75
    endloop
  endfacet
  facet normal 0.994522 -0.104531 0
    outer loop
      vertex -15.3803 0.18712 -2.75
      vertex -15.4 0 2.75
      vertex -15.4 0 -2.75
    endloop
  endfacet
  facet normal 0.866026 -0.499998 0
    outer loop
      vertex -15.3222 0.366062 2.75
      vertex -15.2281 0.529006 -2.75
      vertex -15.2281 0.529006 2.75
    endloop
  endfacet
  facet normal 0.866026 -0.499998 0
    outer loop
      vertex -15.2281 0.529006 -2.75
      vertex -15.3222 0.366062 2.75
      vertex -15.3222 0.366062 -2.75
    endloop
  endfacet
  facet normal 0.587788 -0.809015 0
    outer loop
      vertex -15.1022 0.66883 -2.75
      vertex -14.95 0.779423 2.75
      vertex -15.1022 0.66883 2.75
    endloop
  endfacet
  facet normal 0.587788 -0.809015 0
    outer loop
      vertex -14.95 0.779423 2.75
      vertex -15.1022 0.66883 -2.75
      vertex -14.95 0.779423 -2.75
    endloop
  endfacet
  facet normal 0.207911 -0.978148 0
    outer loop
      vertex -14.7781 0.85595 -2.75
      vertex -14.5941 0.895069 2.75
      vertex -14.7781 0.85595 2.75
    endloop
  endfacet
  facet normal 0.207911 -0.978148 0
    outer loop
      vertex -14.5941 0.895069 2.75
      vertex -14.7781 0.85595 -2.75
      vertex -14.5941 0.895069 -2.75
    endloop
  endfacet
  facet normal 0.743144 -0.669132 0
    outer loop
      vertex -15.2281 0.529006 2.75
      vertex -15.1022 0.66883 -2.75
      vertex -15.1022 0.66883 2.75
    endloop
  endfacet
  facet normal 0.743144 -0.669132 0
    outer loop
      vertex -15.1022 0.66883 -2.75
      vertex -15.2281 0.529006 2.75
      vertex -15.2281 0.529006 -2.75
    endloop
  endfacet
  facet normal -0.994522 -0.104531 0
    outer loop
      vertex -13.6 0 -2.75
      vertex -13.6197 0.18712 2.75
      vertex -13.6197 0.18712 -2.75
    endloop
  endfacet
  facet normal -0.994522 -0.104531 0
    outer loop
      vertex -13.6197 0.18712 2.75
      vertex -13.6 0 -2.75
      vertex -13.6 0 2.75
    endloop
  endfacet
  facet normal -0.951056 0.309017 0
    outer loop
      vertex -13.6778 -0.366062 -2.75
      vertex -13.6197 -0.18712 2.75
      vertex -13.6197 -0.18712 -2.75
    endloop
  endfacet
  facet normal -0.951056 0.309017 0
    outer loop
      vertex -13.6197 -0.18712 2.75
      vertex -13.6778 -0.366062 -2.75
      vertex -13.6778 -0.366062 2.75
    endloop
  endfacet
  facet normal 0.866026 0.499998 0
    outer loop
      vertex -15.2281 -0.529006 2.75
      vertex -15.3222 -0.366062 -2.75
      vertex -15.3222 -0.366062 2.75
    endloop
  endfacet
  facet normal 0.866026 0.499998 0
    outer loop
      vertex -15.3222 -0.366062 -2.75
      vertex -15.2281 -0.529006 2.75
      vertex -15.2281 -0.529006 -2.75
    endloop
  endfacet
  facet normal -0.587788 0.809015 0
    outer loop
      vertex -13.8978 -0.66883 -2.75
      vertex -14.05 -0.779423 2.75
      vertex -13.8978 -0.66883 2.75
    endloop
  endfacet
  facet normal -0.587788 0.809015 0
    outer loop
      vertex -14.05 -0.779423 2.75
      vertex -13.8978 -0.66883 -2.75
      vertex -14.05 -0.779423 -2.75
    endloop
  endfacet
  facet normal 0.951056 -0.309017 0
    outer loop
      vertex -15.3803 0.18712 2.75
      vertex -15.3222 0.366062 -2.75
      vertex -15.3222 0.366062 2.75
    endloop
  endfacet
  facet normal 0.951056 -0.309017 0
    outer loop
      vertex -15.3222 0.366062 -2.75
      vertex -15.3803 0.18712 2.75
      vertex -15.3803 0.18712 -2.75
    endloop
  endfacet
  facet normal -0.866026 0.499998 0
    outer loop
      vertex -13.7719 -0.529006 -2.75
      vertex -13.6778 -0.366062 2.75
      vertex -13.6778 -0.366062 -2.75
    endloop
  endfacet
  facet normal -0.866026 0.499998 0
    outer loop
      vertex -13.6778 -0.366062 2.75
      vertex -13.7719 -0.529006 -2.75
      vertex -13.7719 -0.529006 2.75
    endloop
  endfacet
  facet normal 0 1 -0
    outer loop
      vertex -14.4059 -0.895069 -2.75
      vertex -14.5941 -0.895069 2.75
      vertex -14.4059 -0.895069 2.75
    endloop
  endfacet
  facet normal 0 1 0
    outer loop
      vertex -14.5941 -0.895069 2.75
      vertex -14.4059 -0.895069 -2.75
      vertex -14.5941 -0.895069 -2.75
    endloop
  endfacet
  facet normal -0.406735 0.913546 0
    outer loop
      vertex -14.05 -0.779423 -2.75
      vertex -14.2219 -0.85595 2.75
      vertex -14.05 -0.779423 2.75
    endloop
  endfacet
  facet normal -0.406735 0.913546 0
    outer loop
      vertex -14.2219 -0.85595 2.75
      vertex -14.05 -0.779423 -2.75
      vertex -14.2219 -0.85595 -2.75
    endloop
  endfacet
  facet normal 0.207911 0.978148 -0
    outer loop
      vertex -14.5941 -0.895069 -2.75
      vertex -14.7781 -0.85595 2.75
      vertex -14.5941 -0.895069 2.75
    endloop
  endfacet
  facet normal 0.207911 0.978148 0
    outer loop
      vertex -14.7781 -0.85595 2.75
      vertex -14.5941 -0.895069 -2.75
      vertex -14.7781 -0.85595 -2.75
    endloop
  endfacet
  facet normal 0.951056 0.309017 0
    outer loop
      vertex -15.3222 -0.366062 2.75
      vertex -15.3803 -0.18712 -2.75
      vertex -15.3803 -0.18712 2.75
    endloop
  endfacet
  facet normal 0.951056 0.309017 0
    outer loop
      vertex -15.3803 -0.18712 -2.75
      vertex -15.3222 -0.366062 2.75
      vertex -15.3222 -0.366062 -2.75
    endloop
  endfacet
  facet normal 0.994522 0.104531 0
    outer loop
      vertex -15.3803 -0.18712 2.75
      vertex -15.4 0 -2.75
      vertex -15.4 0 2.75
    endloop
  endfacet
  facet normal 0.994522 0.104531 0
    outer loop
      vertex -15.4 0 -2.75
      vertex -15.3803 -0.18712 2.75
      vertex -15.3803 -0.18712 -2.75
    endloop
  endfacet
  facet normal 0.743144 0.669132 0
    outer loop
      vertex -15.1022 -0.66883 2.75
      vertex -15.2281 -0.529006 -2.75
      vertex -15.2281 -0.529006 2.75
    endloop
  endfacet
  facet normal 0.743144 0.669132 0
    outer loop
      vertex -15.2281 -0.529006 -2.75
      vertex -15.1022 -0.66883 2.75
      vertex -15.1022 -0.66883 -2.75
    endloop
  endfacet
  facet normal -0.743144 0.669132 0
    outer loop
      vertex -13.8978 -0.66883 -2.75
      vertex -13.7719 -0.529006 2.75
      vertex -13.7719 -0.529006 -2.75
    endloop
  endfacet
  facet normal -0.743144 0.669132 0
    outer loop
      vertex -13.7719 -0.529006 2.75
      vertex -13.8978 -0.66883 -2.75
      vertex -13.8978 -0.66883 2.75
    endloop
  endfacet
  facet normal 0.406735 0.913546 -0
    outer loop
      vertex -14.7781 -0.85595 -2.75
      vertex -14.95 -0.779423 2.75
      vertex -14.7781 -0.85595 2.75
    endloop
  endfacet
  facet normal 0.406735 0.913546 0
    outer loop
      vertex -14.95 -0.779423 2.75
      vertex -14.7781 -0.85595 -2.75
      vertex -14.95 -0.779423 -2.75
    endloop
  endfacet
  facet normal 0.587788 0.809015 -0
    outer loop
      vertex -14.95 -0.779423 -2.75
      vertex -15.1022 -0.66883 2.75
      vertex -14.95 -0.779423 2.75
    endloop
  endfacet
  facet normal 0.587788 0.809015 0
    outer loop
      vertex -15.1022 -0.66883 2.75
      vertex -14.95 -0.779423 -2.75
      vertex -15.1022 -0.66883 -2.75
    endloop
  endfacet
endsolid OpenSCAD_Model
