solid OpenSCAD_Model
  facet normal -1 0 0
    outer loop
      vertex -17 -7 -2.75
      vertex -17 7 2.75
      vertex -17 7 -2.75
    endloop
  endfacet
  facet normal -1 -0 0
    outer loop
      vertex -17 7 2.75
      vertex -17 -7 -2.75
      vertex -17 -7 2.75
    endloop
  endfacet
  facet normal 0 0 1
    outer loop
      vertex 17 7 2.75
      vertex 15.3 0 2.75
      vertex 17 -7 2.75
    endloop
  endfacet
  facet normal 0 0 1
    outer loop
      vertex 17 7 2.75
      vertex 15.2825 0.166328 2.75
      vertex 15.3 0 2.75
    endloop
  endfacet
  facet normal 0 0 1
    outer loop
      vertex 17 7 2.75
      vertex 15.2308 0.325389 2.75
      vertex 15.2825 0.166328 2.75
    endloop
  endfacet
  facet normal 0 0 1
    outer loop
      vertex 17 7 2.75
      vertex 15.1472 0.470228 2.75
      vertex 15.2308 0.325389 2.75
    endloop
  endfacet
  facet normal 0 0 1
    outer loop
      vertex 17 7 2.75
      vertex 15.0353 0.594516 2.75
      vertex 15.1472 0.470228 2.75
    endloop
  endfacet
  facet normal 0 0 1
    outer loop
      vertex 17 7 2.75
      vertex 14.9 0.69282 2.75
      vertex 15.0353 0.594516 2.75
    endloop
  endfacet
  facet normal 0 0 1
    outer loop
      vertex 17 7 2.75
      vertex 14.7472 0.760845 2.75
      vertex 14.9 0.69282 2.75
    endloop
  endfacet
  facet normal 0 0 1
    outer loop
      vertex 17 7 2.75
      vertex 14.5836 0.795617 2.75
      vertex 14.7472 0.760845 2.75
    endloop
  endfacet
  facet normal -0 0 1
    outer loop
      vertex 12 6.3 2.75
      vertex 14.5836 0.795617 2.75
      vertex 17 7 2.75
    endloop
  endfacet
  facet normal 0 0 1
    outer loop
      vertex 14.5836 0.795617 2.75
      vertex 12 6.3 2.75
      vertex 14.4164 0.795617 2.75
    endloop
  endfacet
  facet normal 0 0 1
    outer loop
      vertex 14.4164 0.795617 2.75
      vertex 12 6.3 2.75
      vertex 14.2528 0.760845 2.75
    endloop
  endfacet
  facet normal 0 0 1
    outer loop
      vertex 14.2528 0.760845 2.75
      vertex 12 6.3 2.75
      vertex 14.1 0.69282 2.75
    endloop
  endfacet
  facet normal 0 0 1
    outer loop
      vertex 14.1 0.69282 2.75
      vertex 12 6.3 2.75
      vertex 13.9647 0.594516 2.75
    endloop
  endfacet
  facet normal 0 0 1
    outer loop
      vertex 13.9647 0.594516 2.75
      vertex 12 6.3 2.75
      vertex 13.8528 0.470228 2.75
    endloop
  endfacet
  facet normal 0 0 1
    outer loop
      vertex 13.7175 0.166328 2.75
      vertex 12 6.3 2.75
      vertex 13.7 0 2.75
    endloop
  endfacet
  facet normal 0 0 1
    outer loop
      vertex 13.7692 0.325389 2.75
      vertex 12 6.3 2.75
      vertex 13.7175 0.166328 2.75
    endloop
  endfacet
  facet normal 0 0 1
    outer loop
      vertex 13.8528 0.470228 2.75
      vertex 12 6.3 2.75
      vertex 13.7692 0.325389 2.75
    endloop
  endfacet
  facet normal 0 0 1
    outer loop
      vertex 17 7 2.75
      vertex -12 6.3 2.75
      vertex 12 6.3 2.75
    endloop
  endfacet
  facet normal 0 0 1
    outer loop
      vertex -12 6.3 2.75
      vertex -13.7 0 2.75
      vertex -12 -6.3 2.75
    endloop
  endfacet
  facet normal 0 0 1
    outer loop
      vertex -12 6.3 2.75
      vertex -13.7175 0.166328 2.75
      vertex -13.7 0 2.75
    endloop
  endfacet
  facet normal 0 0 1
    outer loop
      vertex -12 6.3 2.75
      vertex -13.7692 0.325389 2.75
      vertex -13.7175 0.166328 2.75
    endloop
  endfacet
  facet normal 0 0 1
    outer loop
      vertex -12 6.3 2.75
      vertex -13.8528 0.470228 2.75
      vertex -13.7692 0.325389 2.75
    endloop
  endfacet
  facet normal 0 0 1
    outer loop
      vertex -12 6.3 2.75
      vertex -13.9647 0.594516 2.75
      vertex -13.8528 0.470228 2.75
    endloop
  endfacet
  facet normal 0 0 1
    outer loop
      vertex -12 6.3 2.75
      vertex -14.1 0.69282 2.75
      vertex -13.9647 0.594516 2.75
    endloop
  endfacet
  facet normal 0 0 1
    outer loop
      vertex -12 6.3 2.75
      vertex -14.2528 0.760845 2.75
      vertex -14.1 0.69282 2.75
    endloop
  endfacet
  facet normal 0 0 1
    outer loop
      vertex -12 6.3 2.75
      vertex -14.4164 0.795617 2.75
      vertex -14.2528 0.760845 2.75
    endloop
  endfacet
  facet normal 0 0 1
    outer loop
      vertex -12 6.3 2.75
      vertex -14.5836 0.795617 2.75
      vertex -14.4164 0.795617 2.75
    endloop
  endfacet
  facet normal 0 0 1
    outer loop
      vertex -17 7 2.75
      vertex -14.5836 0.795617 2.75
      vertex -12 6.3 2.75
    endloop
  endfacet
  facet normal 0 0 1
    outer loop
      vertex -14.5836 0.795617 2.75
      vertex -17 7 2.75
      vertex -14.7472 0.760845 2.75
    endloop
  endfacet
  facet normal 0 0 1
    outer loop
      vertex -14.7472 0.760845 2.75
      vertex -17 7 2.75
      vertex -14.9 0.69282 2.75
    endloop
  endfacet
  facet normal 0 0 1
    outer loop
      vertex -14.9 0.69282 2.75
      vertex -17 7 2.75
      vertex -15.0353 0.594516 2.75
    endloop
  endfacet
  facet normal 0 0 1
    outer loop
      vertex -15.0353 0.594516 2.75
      vertex -17 7 2.75
      vertex -15.1472 0.470228 2.75
    endloop
  endfacet
  facet normal 0 0 1
    outer loop
      vertex -15.2825 0.166328 2.75
      vertex -17 7 2.75
      vertex -15.3 0 2.75
    endloop
  endfacet
  facet normal 0 0 1
    outer loop
      vertex -15.2308 0.325389 2.75
      vertex -17 7 2.75
      vertex -15.2825 0.166328 2.75
    endloop
  endfacet
  facet normal 0 0 1
    outer loop
      vertex -15.1472 0.470228 2.75
      vertex -17 7 2.75
      vertex -15.2308 0.325389 2.75
    endloop
  endfacet
  facet normal -0 0 1
    outer loop
      vertex -17 7 2.75
      vertex -12 6.3 2.75
      vertex 17 7 2.75
    endloop
  endfacet
  facet normal -0 0 1
    outer loop
      vertex 15.2825 -0.166328 2.75
      vertex 17 -7 2.75
      vertex 15.3 0 2.75
    endloop
  endfacet
  facet normal -0 0 1
    outer loop
      vertex 15.2308 -0.325389 2.75
      vertex 17 -7 2.75
      vertex 15.2825 -0.166328 2.75
    endloop
  endfacet
  facet normal -0 0 1
    outer loop
      vertex 15.1472 -0.470228 2.75
      vertex 17 -7 2.75
      vertex 15.2308 -0.325389 2.75
    endloop
  endfacet
  facet normal -0 0 1
    outer loop
      vertex 15.0353 -0.594516 2.75
      vertex 17 -7 2.75
      vertex 15.1472 -0.470228 2.75
    endloop
  endfacet
  facet normal -0 0 1
    outer loop
      vertex 14.9 -0.69282 2.75
      vertex 17 -7 2.75
      vertex 15.0353 -0.594516 2.75
    endloop
  endfacet
  facet normal -0 0 1
    outer loop
      vertex 14.7472 -0.760845 2.75
      vertex 17 -7 2.75
      vertex 14.9 -0.69282 2.75
    endloop
  endfacet
  facet normal -0 0 1
    outer loop
      vertex 14.5836 -0.795617 2.75
      vertex 17 -7 2.75
      vertex 14.7472 -0.760845 2.75
    endloop
  endfacet
  facet normal 0 0 1
    outer loop
      vertex 12 -6.3 2.75
      vertex 14.5836 -0.795617 2.75
      vertex 14.4164 -0.795617 2.75
    endloop
  endfacet
  facet normal 0 0 1
    outer loop
      vertex 12 -6.3 2.75
      vertex 14.4164 -0.795617 2.75
      vertex 14.2528 -0.760845 2.75
    endloop
  endfacet
  facet normal 0 0 1
    outer loop
      vertex 12 -6.3 2.75
      vertex 14.2528 -0.760845 2.75
      vertex 14.1 -0.69282 2.75
    endloop
  endfacet
  facet normal 0 0 1
    outer loop
      vertex 12 -6.3 2.75
      vertex 14.1 -0.69282 2.75
      vertex 13.9647 -0.594516 2.75
    endloop
  endfacet
  facet normal 0 0 1
    outer loop
      vertex 12 -6.3 2.75
      vertex 13.9647 -0.594516 2.75
      vertex 13.8528 -0.470228 2.75
    endloop
  endfacet
  facet normal 0 0 1
    outer loop
      vertex 12 -6.3 2.75
      vertex 13.8528 -0.470228 2.75
      vertex 13.7692 -0.325389 2.75
    endloop
  endfacet
  facet normal 0 0 1
    outer loop
      vertex 12 -6.3 2.75
      vertex 13.7 0 2.75
      vertex 12 6.3 2.75
    endloop
  endfacet
  facet normal 0 0 1
    outer loop
      vertex 13.7 0 2.75
      vertex 12 -6.3 2.75
      vertex 13.7175 -0.166328 2.75
    endloop
  endfacet
  facet normal 0 0 1
    outer loop
      vertex 12 -6.3 2.75
      vertex 13.7692 -0.325389 2.75
      vertex 13.7175 -0.166328 2.75
    endloop
  endfacet
  facet normal 0 0 1
    outer loop
      vertex 14.5836 -0.795617 2.75
      vertex 12 -6.3 2.75
      vertex 17 -7 2.75
    endloop
  endfacet
  facet normal -0 0 1
    outer loop
      vertex -12 -6.3 2.75
      vertex 17 -7 2.75
      vertex 12 -6.3 2.75
    endloop
  endfacet
  facet normal -0 0 1
    outer loop
      vertex -13.7175 -0.166328 2.75
      vertex -12 -6.3 2.75
      vertex -13.7 0 2.75
    endloop
  endfacet
  facet normal -0 0 1
    outer loop
      vertex -13.7692 -0.325389 2.75
      vertex -12 -6.3 2.75
      vertex -13.7175 -0.166328 2.75
    endloop
  endfacet
  facet normal -0 0 1
    outer loop
      vertex -13.8528 -0.470228 2.75
      vertex -12 -6.3 2.75
      vertex -13.7692 -0.325389 2.75
    endloop
  endfacet
  facet normal -0 0 1
    outer loop
      vertex -13.9647 -0.594516 2.75
      vertex -12 -6.3 2.75
      vertex -13.8528 -0.470228 2.75
    endloop
  endfacet
  facet normal -0 0 1
    outer loop
      vertex -14.1 -0.69282 2.75
      vertex -12 -6.3 2.75
      vertex -13.9647 -0.594516 2.75
    endloop
  endfacet
  facet normal -0 0 1
    outer loop
      vertex -14.2528 -0.760845 2.75
      vertex -12 -6.3 2.75
      vertex -14.1 -0.69282 2.75
    endloop
  endfacet
  facet normal -0 0 1
    outer loop
      vertex -14.4164 -0.795617 2.75
      vertex -12 -6.3 2.75
      vertex -14.2528 -0.760845 2.75
    endloop
  endfacet
  facet normal -0 0 1
    outer loop
      vertex -14.5836 -0.795617 2.75
      vertex -12 -6.3 2.75
      vertex -14.4164 -0.795617 2.75
    endloop
  endfacet
  facet normal 0 0 1
    outer loop
      vertex -17 -7 2.75
      vertex -14.5836 -0.795617 2.75
      vertex -14.7472 -0.760845 2.75
    endloop
  endfacet
  facet normal 0 0 1
    outer loop
      vertex -17 -7 2.75
      vertex -14.7472 -0.760845 2.75
      vertex -14.9 -0.69282 2.75
    endloop
  endfacet
  facet normal 0 0 1
    outer loop
      vertex -17 -7 2.75
      vertex -14.9 -0.69282 2.75
      vertex -15.0353 -0.594516 2.75
    endloop
  endfacet
  facet normal 0 0 1
    outer loop
      vertex -17 -7 2.75
      vertex -15.0353 -0.594516 2.75
      vertex -15.1472 -0.470228 2.75
    endloop
  endfacet
  facet normal 0 0 1
    outer loop
      vertex -17 -7 2.75
      vertex -15.1472 -0.470228 2.75
      vertex -15.2308 -0.325389 2.75
    endloop
  endfacet
  facet normal 0 0 1
    outer loop
      vertex -17 -7 2.75
      vertex -15.3 0 2.75
      vertex -17 7 2.75
    endloop
  endfacet
  facet normal 0 0 1
    outer loop
      vertex -12 -6.3 2.75
      vertex -17 -7 2.75
      vertex 17 -7 2.75
    endloop
  endfacet
  facet normal 0 0 1
    outer loop
      vertex -14.5836 -0.795617 2.75
      vertex -17 -7 2.75
      vertex -12 -6.3 2.75
    endloop
  endfacet
  facet normal 0 0 1
    outer loop
      vertex -15.2825 -0.166328 2.75
      vertex -17 -7 2.75
      vertex -15.2308 -0.325389 2.75
    endloop
  endfacet
  facet normal 0 0 1
    outer loop
      vertex -15.3 0 2.75
      vertex -17 -7 2.75
      vertex -15.2825 -0.166328 2.75
    endloop
  endfacet
  facet normal 1 -0 0
    outer loop
      vertex 17 -7 2.75
      vertex 17 7 -2.75
      vertex 17 7 2.75
    endloop
  endfacet
  facet normal 1 0 0
    outer loop
      vertex 17 7 -2.75
      vertex 17 -7 2.75
      vertex 17 -7 -2.75
    endloop
  endfacet
  facet normal 0 1 -0
    outer loop
      vertex 17 7 -2.75
      vertex -17 7 2.75
      vertex 17 7 2.75
    endloop
  endfacet
  facet normal 0 1 0
    outer loop
      vertex -17 7 2.75
      vertex 17 7 -2.75
      vertex -17 7 -2.75
    endloop
  endfacet
  facet normal 0 0 -1
    outer loop
      vertex 17 -7 -2.75
      vertex 15.3 0 -2.75
      vertex 17 7 -2.75
    endloop
  endfacet
  facet normal 0 0 -1
    outer loop
      vertex 17 -7 -2.75
      vertex 15.2825 -0.166328 -2.75
      vertex 15.3 0 -2.75
    endloop
  endfacet
  facet normal 0 0 -1
    outer loop
      vertex 17 -7 -2.75
      vertex 15.2308 -0.325389 -2.75
      vertex 15.2825 -0.166328 -2.75
    endloop
  endfacet
  facet normal 0 0 -1
    outer loop
      vertex 17 -7 -2.75
      vertex 15.1472 -0.470228 -2.75
      vertex 15.2308 -0.325389 -2.75
    endloop
  endfacet
  facet normal 0 0 -1
    outer loop
      vertex 17 -7 -2.75
      vertex 15.0353 -0.594516 -2.75
      vertex 15.1472 -0.470228 -2.75
    endloop
  endfacet
  facet normal 0 0 -1
    outer loop
      vertex 17 -7 -2.75
      vertex 14.9 -0.69282 -2.75
      vertex 15.0353 -0.594516 -2.75
    endloop
  endfacet
  facet normal 0 0 -1
    outer loop
      vertex 17 -7 -2.75
      vertex 14.7472 -0.760845 -2.75
      vertex 14.9 -0.69282 -2.75
    endloop
  endfacet
  facet normal 0 0 -1
    outer loop
      vertex 17 -7 -2.75
      vertex 14.5836 -0.795617 -2.75
      vertex 14.7472 -0.760845 -2.75
    endloop
  endfacet
  facet normal 0 0 -1
    outer loop
      vertex 17 -7 -2.75
      vertex 14.4164 -0.795617 -2.75
      vertex 14.5836 -0.795617 -2.75
    endloop
  endfacet
  facet normal 0 0 -1
    outer loop
      vertex 11.1553 -2.56244 -2.75
      vertex 14.4164 -0.795617 -2.75
      vertex 17 -7 -2.75
    endloop
  endfacet
  facet normal -0 0 -1
    outer loop
      vertex 14.4164 -0.795617 -2.75
      vertex 11.1553 -2.56244 -2.75
      vertex 14.2528 -0.760845 -2.75
    endloop
  endfacet
  facet normal -0 0 -1
    outer loop
      vertex 14.2528 -0.760845 -2.75
      vertex 11.1553 -2.56244 -2.75
      vertex 14.1 -0.69282 -2.75
    endloop
  endfacet
  facet normal 0 -0 -1
    outer loop
      vertex 11.5623 -1.30984 -2.75
      vertex 14.1 -0.69282 -2.75
      vertex 11.1553 -2.56244 -2.75
    endloop
  endfacet
  facet normal -0 0 -1
    outer loop
      vertex 14.1 -0.69282 -2.75
      vertex 11.5623 -1.30984 -2.75
      vertex 13.9647 -0.594516 -2.75
    endloop
  endfacet
  facet normal 0 0 -1
    outer loop
      vertex 13.7175 -0.166328 -2.75
      vertex 11.7 0 -2.75
      vertex 13.7 0 -2.75
    endloop
  endfacet
  facet normal 0 0 -1
    outer loop
      vertex 13.7692 -0.325389 -2.75
      vertex 11.7 0 -2.75
      vertex 13.7175 -0.166328 -2.75
    endloop
  endfacet
  facet normal -0 0 -1
    outer loop
      vertex 13.9647 -0.594516 -2.75
      vertex 11.5623 -1.30984 -2.75
      vertex 13.8528 -0.470228 -2.75
    endloop
  endfacet
  facet normal -0 0 -1
    outer loop
      vertex 13.7692 -0.325389 -2.75
      vertex 11.5623 -1.30984 -2.75
      vertex 11.7 0 -2.75
    endloop
  endfacet
  facet normal -0 0 -1
    outer loop
      vertex 13.8528 -0.470228 -2.75
      vertex 11.5623 -1.30984 -2.75
      vertex 13.7692 -0.325389 -2.75
    endloop
  endfacet
  facet normal 0 0 -1
    outer loop
      vertex 17 -7 -2.75
      vertex 10.4968 -3.70305 -2.75
      vertex 11.1553 -2.56244 -2.75
    endloop
  endfacet
  facet normal 0 0 -1
    outer loop
      vertex 17 -7 -2.75
      vertex 9.61552 -4.68181 -2.75
      vertex 10.4968 -3.70305 -2.75
    endloop
  endfacet
  facet normal 0 0 -1
    outer loop
      vertex 17 -7 -2.75
      vertex 8.55 -5.45596 -2.75
      vertex 9.61552 -4.68181 -2.75
    endloop
  endfacet
  facet normal 0 0 -1
    outer loop
      vertex 17 -7 -2.75
      vertex 7.34681 -5.99166 -2.75
      vertex 8.55 -5.45596 -2.75
    endloop
  endfacet
  facet normal 0 0 -1
    outer loop
      vertex 17 -7 -2.75
      vertex 6.05853 -6.26549 -2.75
      vertex 7.34681 -5.99166 -2.75
    endloop
  endfacet
  facet normal 0 0 -1
    outer loop
      vertex 17 -7 -2.75
      vertex 4.74147 -6.26549 -2.75
      vertex 6.05853 -6.26549 -2.75
    endloop
  endfacet
  facet normal 0 0 -1
    outer loop
      vertex 0.303192 -3.70305 -2.75
      vertex -3.5 -3.1 -2.75
      vertex -0.0449767 -3.1 -2.75
    endloop
  endfacet
  facet normal 0 0 -1
    outer loop
      vertex 1.18448 -4.68181 -2.75
      vertex -3.5 -3.1 -2.75
      vertex 0.303192 -3.70305 -2.75
    endloop
  endfacet
  facet normal 0 0 -1
    outer loop
      vertex 2.25 -5.45596 -2.75
      vertex -3.5 -3.1 -2.75
      vertex 1.18448 -4.68181 -2.75
    endloop
  endfacet
  facet normal 0 0 -1
    outer loop
      vertex -17 -7 -2.75
      vertex 2.25 -5.45596 -2.75
      vertex 3.45319 -5.99166 -2.75
    endloop
  endfacet
  facet normal 0 0 -1
    outer loop
      vertex -3.5 -3.1 -2.75
      vertex -13.7 0 -2.75
      vertex -3.5 3.1 -2.75
    endloop
  endfacet
  facet normal -0 0 -1
    outer loop
      vertex 2.25 -5.45596 -2.75
      vertex -17 -7 -2.75
      vertex -3.5 -3.1 -2.75
    endloop
  endfacet
  facet normal 0 0 -1
    outer loop
      vertex -3.5 -3.1 -2.75
      vertex -13.7175 -0.166328 -2.75
      vertex -13.7 0 -2.75
    endloop
  endfacet
  facet normal 0 0 -1
    outer loop
      vertex -3.5 -3.1 -2.75
      vertex -13.7692 -0.325389 -2.75
      vertex -13.7175 -0.166328 -2.75
    endloop
  endfacet
  facet normal 0 0 -1
    outer loop
      vertex -3.5 -3.1 -2.75
      vertex -13.8528 -0.470228 -2.75
      vertex -13.7692 -0.325389 -2.75
    endloop
  endfacet
  facet normal 0 0 -1
    outer loop
      vertex -3.5 -3.1 -2.75
      vertex -13.9647 -0.594516 -2.75
      vertex -13.8528 -0.470228 -2.75
    endloop
  endfacet
  facet normal -0 0 -1
    outer loop
      vertex -3.5 -3.1 -2.75
      vertex -17 -7 -2.75
      vertex -13.9647 -0.594516 -2.75
    endloop
  endfacet
  facet normal 0 0 -1
    outer loop
      vertex -13.9647 -0.594516 -2.75
      vertex -17 -7 -2.75
      vertex -14.1 -0.69282 -2.75
    endloop
  endfacet
  facet normal 0 0 -1
    outer loop
      vertex -14.1 -0.69282 -2.75
      vertex -17 -7 -2.75
      vertex -14.2528 -0.760845 -2.75
    endloop
  endfacet
  facet normal 0 0 -1
    outer loop
      vertex -14.2528 -0.760845 -2.75
      vertex -17 -7 -2.75
      vertex -14.4164 -0.795617 -2.75
    endloop
  endfacet
  facet normal -0 0 -1
    outer loop
      vertex -14.4164 -0.795617 -2.75
      vertex -17 -7 -2.75
      vertex -14.5836 -0.795617 -2.75
    endloop
  endfacet
  facet normal -0 0 -1
    outer loop
      vertex -15.2825 -0.166328 -2.75
      vertex -17 -7 -2.75
      vertex -15.3 0 -2.75
    endloop
  endfacet
  facet normal -0 0 -1
    outer loop
      vertex -15.2308 -0.325389 -2.75
      vertex -17 -7 -2.75
      vertex -15.2825 -0.166328 -2.75
    endloop
  endfacet
  facet normal -0 0 -1
    outer loop
      vertex -15.1472 -0.470228 -2.75
      vertex -17 -7 -2.75
      vertex -15.2308 -0.325389 -2.75
    endloop
  endfacet
  facet normal -0 0 -1
    outer loop
      vertex -15.0353 -0.594516 -2.75
      vertex -17 -7 -2.75
      vertex -15.1472 -0.470228 -2.75
    endloop
  endfacet
  facet normal -0 0 -1
    outer loop
      vertex -14.9 -0.69282 -2.75
      vertex -17 -7 -2.75
      vertex -15.0353 -0.594516 -2.75
    endloop
  endfacet
  facet normal -0 0 -1
    outer loop
      vertex -14.7472 -0.760845 -2.75
      vertex -17 -7 -2.75
      vertex -14.9 -0.69282 -2.75
    endloop
  endfacet
  facet normal -0 0 -1
    outer loop
      vertex -14.5836 -0.795617 -2.75
      vertex -17 -7 -2.75
      vertex -14.7472 -0.760845 -2.75
    endloop
  endfacet
  facet normal -0 0 -1
    outer loop
      vertex 4.74147 -6.26549 -2.75
      vertex -17 -7 -2.75
      vertex 3.45319 -5.99166 -2.75
    endloop
  endfacet
  facet normal 0 0 -1
    outer loop
      vertex -17 -7 -2.75
      vertex 4.74147 -6.26549 -2.75
      vertex 17 -7 -2.75
    endloop
  endfacet
  facet normal 0 0 -1
    outer loop
      vertex 15.2825 0.166328 -2.75
      vertex 17 7 -2.75
      vertex 15.3 0 -2.75
    endloop
  endfacet
  facet normal 0 0 -1
    outer loop
      vertex 15.2308 0.325389 -2.75
      vertex 17 7 -2.75
      vertex 15.2825 0.166328 -2.75
    endloop
  endfacet
  facet normal 0 0 -1
    outer loop
      vertex 15.1472 0.470228 -2.75
      vertex 17 7 -2.75
      vertex 15.2308 0.325389 -2.75
    endloop
  endfacet
  facet normal 0 0 -1
    outer loop
      vertex 15.0353 0.594516 -2.75
      vertex 17 7 -2.75
      vertex 15.1472 0.470228 -2.75
    endloop
  endfacet
  facet normal 0 0 -1
    outer loop
      vertex 14.9 0.69282 -2.75
      vertex 17 7 -2.75
      vertex 15.0353 0.594516 -2.75
    endloop
  endfacet
  facet normal 0 0 -1
    outer loop
      vertex 14.7472 0.760845 -2.75
      vertex 17 7 -2.75
      vertex 14.9 0.69282 -2.75
    endloop
  endfacet
  facet normal 0 0 -1
    outer loop
      vertex 14.5836 0.795617 -2.75
      vertex 17 7 -2.75
      vertex 14.7472 0.760845 -2.75
    endloop
  endfacet
  facet normal 0 0 -1
    outer loop
      vertex 14.4164 0.795617 -2.75
      vertex 17 7 -2.75
      vertex 14.5836 0.795617 -2.75
    endloop
  endfacet
  facet normal 0 0 -1
    outer loop
      vertex 11.1553 2.56244 -2.75
      vertex 14.4164 0.795617 -2.75
      vertex 14.2528 0.760845 -2.75
    endloop
  endfacet
  facet normal 0 0 -1
    outer loop
      vertex 11.1553 2.56244 -2.75
      vertex 14.2528 0.760845 -2.75
      vertex 14.1 0.69282 -2.75
    endloop
  endfacet
  facet normal 0 0 -1
    outer loop
      vertex 11.5623 1.30984 -2.75
      vertex 14.1 0.69282 -2.75
      vertex 13.9647 0.594516 -2.75
    endloop
  endfacet
  facet normal 0 0 -1
    outer loop
      vertex 11.5623 1.30984 -2.75
      vertex 13.9647 0.594516 -2.75
      vertex 13.8528 0.470228 -2.75
    endloop
  endfacet
  facet normal 0 0 -1
    outer loop
      vertex 11.5623 1.30984 -2.75
      vertex 13.8528 0.470228 -2.75
      vertex 13.7692 0.325389 -2.75
    endloop
  endfacet
  facet normal 0 0 -1
    outer loop
      vertex 11.7 0 -2.75
      vertex 13.7175 0.166328 -2.75
      vertex 13.7 0 -2.75
    endloop
  endfacet
  facet normal 0 0 -1
    outer loop
      vertex 11.7 0 -2.75
      vertex 13.7692 0.325389 -2.75
      vertex 13.7175 0.166328 -2.75
    endloop
  endfacet
  facet normal 0 0 -1
    outer loop
      vertex 11.5623 1.30984 -2.75
      vertex 13.7692 0.325389 -2.75
      vertex 11.7 0 -2.75
    endloop
  endfacet
  facet normal 0 0 -1
    outer loop
      vertex 14.1 0.69282 -2.75
      vertex 11.5623 1.30984 -2.75
      vertex 11.1553 2.56244 -2.75
    endloop
  endfacet
  facet normal 0 0 -1
    outer loop
      vertex 14.4164 0.795617 -2.75
      vertex 11.1553 2.56244 -2.75
      vertex 17 7 -2.75
    endloop
  endfacet
  facet normal 0 0 -1
    outer loop
      vertex 10.4968 3.70305 -2.75
      vertex 17 7 -2.75
      vertex 11.1553 2.56244 -2.75
    endloop
  endfacet
  facet normal 0 0 -1
    outer loop
      vertex 9.61552 4.68181 -2.75
      vertex 17 7 -2.75
      vertex 10.4968 3.70305 -2.75
    endloop
  endfacet
  facet normal 0 0 -1
    outer loop
      vertex 8.55 5.45596 -2.75
      vertex 17 7 -2.75
      vertex 9.61552 4.68181 -2.75
    endloop
  endfacet
  facet normal 0 0 -1
    outer loop
      vertex 7.34681 5.99166 -2.75
      vertex 17 7 -2.75
      vertex 8.55 5.45596 -2.75
    endloop
  endfacet
  facet normal 0 0 -1
    outer loop
      vertex 6.05853 6.26549 -2.75
      vertex 17 7 -2.75
      vertex 7.34681 5.99166 -2.75
    endloop
  endfacet
  facet normal 0 0 -1
    outer loop
      vertex 4.74147 6.26549 -2.75
      vertex 17 7 -2.75
      vertex 6.05853 6.26549 -2.75
    endloop
  endfacet
  facet normal 0 0 -1
    outer loop
      vertex -3.5 3.1 -2.75
      vertex 0.303192 3.70305 -2.75
      vertex -0.0449767 3.1 -2.75
    endloop
  endfacet
  facet normal 0 0 -1
    outer loop
      vertex -3.5 3.1 -2.75
      vertex 1.18448 4.68181 -2.75
      vertex 0.303192 3.70305 -2.75
    endloop
  endfacet
  facet normal 0 0 -1
    outer loop
      vertex -3.5 3.1 -2.75
      vertex 2.25 5.45596 -2.75
      vertex 1.18448 4.68181 -2.75
    endloop
  endfacet
  facet normal 0 0 -1
    outer loop
      vertex -17 7 -2.75
      vertex 2.25 5.45596 -2.75
      vertex -3.5 3.1 -2.75
    endloop
  endfacet
  facet normal 0 0 -1
    outer loop
      vertex -13.7175 0.166328 -2.75
      vertex -3.5 3.1 -2.75
      vertex -13.7 0 -2.75
    endloop
  endfacet
  facet normal 0 0 -1
    outer loop
      vertex -13.7692 0.325389 -2.75
      vertex -3.5 3.1 -2.75
      vertex -13.7175 0.166328 -2.75
    endloop
  endfacet
  facet normal 0 0 -1
    outer loop
      vertex -13.8528 0.470228 -2.75
      vertex -3.5 3.1 -2.75
      vertex -13.7692 0.325389 -2.75
    endloop
  endfacet
  facet normal 0 0 -1
    outer loop
      vertex -13.9647 0.594516 -2.75
      vertex -3.5 3.1 -2.75
      vertex -13.8528 0.470228 -2.75
    endloop
  endfacet
  facet normal 0 0 -1
    outer loop
      vertex -17 7 -2.75
      vertex -3.5 3.1 -2.75
      vertex -13.9647 0.594516 -2.75
    endloop
  endfacet
  facet normal 0 0 -1
    outer loop
      vertex -17 7 -2.75
      vertex -13.9647 0.594516 -2.75
      vertex -14.1 0.69282 -2.75
    endloop
  endfacet
  facet normal 0 0 -1
    outer loop
      vertex -17 7 -2.75
      vertex -14.1 0.69282 -2.75
      vertex -14.2528 0.760845 -2.75
    endloop
  endfacet
  facet normal 0 0 -1
    outer loop
      vertex -17 7 -2.75
      vertex -14.2528 0.760845 -2.75
      vertex -14.4164 0.795617 -2.75
    endloop
  endfacet
  facet normal 0 0 -1
    outer loop
      vertex -17 7 -2.75
      vertex -14.4164 0.795617 -2.75
      vertex -14.5836 0.795617 -2.75
    endloop
  endfacet
  facet normal 0 0 -1
    outer loop
      vertex -17 7 -2.75
      vertex -14.5836 0.795617 -2.75
      vertex -14.7472 0.760845 -2.75
    endloop
  endfacet
  facet normal 0 0 -1
    outer loop
      vertex -17 7 -2.75
      vertex -15.3 0 -2.75
      vertex -17 -7 -2.75
    endloop
  endfacet
  facet normal 0 0 -1
    outer loop
      vertex 4.74147 6.26549 -2.75
      vertex -17 7 -2.75
      vertex 17 7 -2.75
    endloop
  endfacet
  facet normal 0 0 -1
    outer loop
      vertex 3.45319 5.99166 -2.75
      vertex -17 7 -2.75
      vertex 4.74147 6.26549 -2.75
    endloop
  endfacet
  facet normal 0 0 -1
    outer loop
      vertex 2.25 5.45596 -2.75
      vertex -17 7 -2.75
      vertex 3.45319 5.99166 -2.75
    endloop
  endfacet
  facet normal 0 0 -1
    outer loop
      vertex -14.9 0.69282 -2.75
      vertex -17 7 -2.75
      vertex -14.7472 0.760845 -2.75
    endloop
  endfacet
  facet normal 0 0 -1
    outer loop
      vertex -15.0353 0.594516 -2.75
      vertex -17 7 -2.75
      vertex -14.9 0.69282 -2.75
    endloop
  endfacet
  facet normal 0 0 -1
    outer loop
      vertex -15.1472 0.470228 -2.75
      vertex -17 7 -2.75
      vertex -15.0353 0.594516 -2.75
    endloop
  endfacet
  facet normal 0 0 -1
    outer loop
      vertex -15.2308 0.325389 -2.75
      vertex -17 7 -2.75
      vertex -15.1472 0.470228 -2.75
    endloop
  endfacet
  facet normal 0 0 -1
    outer loop
      vertex -15.2825 0.166328 -2.75
      vertex -17 7 -2.75
      vertex -15.2308 0.325389 -2.75
    endloop
  endfacet
  facet normal 0 0 -1
    outer loop
      vertex -15.3 0 -2.75
      vertex -17 7 -2.75
      vertex -15.2825 0.166328 -2.75
    endloop
  endfacet
  facet normal 0 -1 0
    outer loop
      vertex -17 -7 -2.75
      vertex 17 -7 2.75
      vertex -17 -7 2.75
    endloop
  endfacet
  facet normal 0 -1 -0
    outer loop
      vertex 17 -7 2.75
      vertex -17 -7 -2.75
      vertex 17 -7 -2.75
    endloop
  endfacet
  facet normal -0.994522 -0.104529 0
    outer loop
      vertex 11.7 0 -2.75
      vertex 11.5623 1.30984 -1.5
      vertex 11.5623 1.30984 -2.75
    endloop
  endfacet
  facet normal -0.994522 -0.104529 0
    outer loop
      vertex 11.5623 1.30984 -1.5
      vertex 11.7 0 -2.75
      vertex 11.7 0 -1.5
    endloop
  endfacet
  facet normal 0 -1 0
    outer loop
      vertex 4.74147 6.26549 -2.75
      vertex 6.05853 6.26549 -1.5
      vertex 4.74147 6.26549 -1.5
    endloop
  endfacet
  facet normal 0 -1 -0
    outer loop
      vertex 6.05853 6.26549 -1.5
      vertex 4.74147 6.26549 -2.75
      vertex 6.05853 6.26549 -2.75
    endloop
  endfacet
  facet normal 0 1 -0
    outer loop
      vertex 6.05853 -6.26549 -2.75
      vertex 4.74147 -6.26549 -1.5
      vertex 6.05853 -6.26549 -1.5
    endloop
  endfacet
  facet normal 0 1 0
    outer loop
      vertex 4.74147 -6.26549 -1.5
      vertex 6.05853 -6.26549 -2.75
      vertex 4.74147 -6.26549 -2.75
    endloop
  endfacet
  facet normal -0.743145 -0.66913 0
    outer loop
      vertex 10.4968 3.70305 -2.75
      vertex 9.61552 4.68181 -1.5
      vertex 9.61552 4.68181 -2.75
    endloop
  endfacet
  facet normal -0.743145 -0.66913 0
    outer loop
      vertex 9.61552 4.68181 -1.5
      vertex 10.4968 3.70305 -2.75
      vertex 10.4968 3.70305 -1.5
    endloop
  endfacet
  facet normal -0.951057 -0.309017 0
    outer loop
      vertex 11.5623 1.30984 -2.75
      vertex 11.1553 2.56244 -1.5
      vertex 11.1553 2.56244 -2.75
    endloop
  endfacet
  facet normal -0.951057 -0.309017 0
    outer loop
      vertex 11.1553 2.56244 -1.5
      vertex 11.5623 1.30984 -2.75
      vertex 11.5623 1.30984 -1.5
    endloop
  endfacet
  facet normal 0.743145 -0.669131 0
    outer loop
      vertex 0.303192 3.70305 -1.5
      vertex 1.18448 4.68181 -2.75
      vertex 1.18448 4.68181 -1.5
    endloop
  endfacet
  facet normal 0.743145 -0.669131 0
    outer loop
      vertex 1.18448 4.68181 -2.75
      vertex 0.303192 3.70305 -1.5
      vertex 0.303192 3.70305 -2.75
    endloop
  endfacet
  facet normal 0.866026 -0.499999 0
    outer loop
      vertex -0.0449767 3.1 -1.5
      vertex 0.303192 3.70305 -2.75
      vertex 0.303192 3.70305 -1.5
    endloop
  endfacet
  facet normal 0.866026 -0.499999 0
    outer loop
      vertex 0.303192 3.70305 -2.75
      vertex -0.0449767 3.1 -1.5
      vertex -0.0449767 3.1 -2.75
    endloop
  endfacet
  facet normal 0.406737 -0.913545 0
    outer loop
      vertex 2.25 5.45596 -2.75
      vertex 3.45319 5.99166 -1.5
      vertex 2.25 5.45596 -1.5
    endloop
  endfacet
  facet normal 0.406737 -0.913545 0
    outer loop
      vertex 3.45319 5.99166 -1.5
      vertex 2.25 5.45596 -2.75
      vertex 3.45319 5.99166 -2.75
    endloop
  endfacet
  facet normal -0.866025 0.5 0
    outer loop
      vertex 10.4968 -3.70305 -2.75
      vertex 11.1553 -2.56244 -1.5
      vertex 11.1553 -2.56244 -2.75
    endloop
  endfacet
  facet normal -0.866025 0.5 0
    outer loop
      vertex 11.1553 -2.56244 -1.5
      vertex 10.4968 -3.70305 -2.75
      vertex 10.4968 -3.70305 -1.5
    endloop
  endfacet
  facet normal -0.866025 -0.5 0
    outer loop
      vertex 11.1553 2.56244 -2.75
      vertex 10.4968 3.70305 -1.5
      vertex 10.4968 3.70305 -2.75
    endloop
  endfacet
  facet normal -0.866025 -0.5 0
    outer loop
      vertex 10.4968 3.70305 -1.5
      vertex 11.1553 2.56244 -2.75
      vertex 11.1553 2.56244 -1.5
    endloop
  endfacet
  facet normal -0.406737 -0.913545 0
    outer loop
      vertex 7.34681 5.99166 -2.75
      vertex 8.55 5.45596 -1.5
      vertex 7.34681 5.99166 -1.5
    endloop
  endfacet
  facet normal -0.406737 -0.913545 -0
    outer loop
      vertex 8.55 5.45596 -1.5
      vertex 7.34681 5.99166 -2.75
      vertex 8.55 5.45596 -2.75
    endloop
  endfacet
  facet normal -0.207912 -0.978148 0
    outer loop
      vertex 6.05853 6.26549 -2.75
      vertex 7.34681 5.99166 -1.5
      vertex 6.05853 6.26549 -1.5
    endloop
  endfacet
  facet normal -0.207912 -0.978148 -0
    outer loop
      vertex 7.34681 5.99166 -1.5
      vertex 6.05853 6.26549 -2.75
      vertex 7.34681 5.99166 -2.75
    endloop
  endfacet
  facet normal -0.587785 -0.809017 0
    outer loop
      vertex 8.55 5.45596 -2.75
      vertex 9.61552 4.68181 -1.5
      vertex 8.55 5.45596 -1.5
    endloop
  endfacet
  facet normal -0.587785 -0.809017 -0
    outer loop
      vertex 9.61552 4.68181 -1.5
      vertex 8.55 5.45596 -2.75
      vertex 9.61552 4.68181 -2.75
    endloop
  endfacet
  facet normal 0.587785 -0.809017 0
    outer loop
      vertex 1.18448 4.68181 -2.75
      vertex 2.25 5.45596 -1.5
      vertex 1.18448 4.68181 -1.5
    endloop
  endfacet
  facet normal 0.587785 -0.809017 0
    outer loop
      vertex 2.25 5.45596 -1.5
      vertex 1.18448 4.68181 -2.75
      vertex 2.25 5.45596 -2.75
    endloop
  endfacet
  facet normal 0.207912 -0.978148 0
    outer loop
      vertex 3.45319 5.99166 -2.75
      vertex 4.74147 6.26549 -1.5
      vertex 3.45319 5.99166 -1.5
    endloop
  endfacet
  facet normal 0.207912 -0.978148 0
    outer loop
      vertex 4.74147 6.26549 -1.5
      vertex 3.45319 5.99166 -2.75
      vertex 4.74147 6.26549 -2.75
    endloop
  endfacet
  facet normal -0.994522 0.104529 0
    outer loop
      vertex 11.5623 -1.30984 -2.75
      vertex 11.7 0 -1.5
      vertex 11.7 0 -2.75
    endloop
  endfacet
  facet normal -0.994522 0.104529 0
    outer loop
      vertex 11.7 0 -1.5
      vertex 11.5623 -1.30984 -2.75
      vertex 11.5623 -1.30984 -1.5
    endloop
  endfacet
  facet normal -0.587785 0.809017 0
    outer loop
      vertex 9.61552 -4.68181 -2.75
      vertex 8.55 -5.45596 -1.5
      vertex 9.61552 -4.68181 -1.5
    endloop
  endfacet
  facet normal -0.587785 0.809017 0
    outer loop
      vertex 8.55 -5.45596 -1.5
      vertex 9.61552 -4.68181 -2.75
      vertex 8.55 -5.45596 -2.75
    endloop
  endfacet
  facet normal -0.743145 0.66913 0
    outer loop
      vertex 9.61552 -4.68181 -2.75
      vertex 10.4968 -3.70305 -1.5
      vertex 10.4968 -3.70305 -2.75
    endloop
  endfacet
  facet normal -0.743145 0.66913 0
    outer loop
      vertex 10.4968 -3.70305 -1.5
      vertex 9.61552 -4.68181 -2.75
      vertex 9.61552 -4.68181 -1.5
    endloop
  endfacet
  facet normal -0.951057 0.309017 0
    outer loop
      vertex 11.1553 -2.56244 -2.75
      vertex 11.5623 -1.30984 -1.5
      vertex 11.5623 -1.30984 -2.75
    endloop
  endfacet
  facet normal -0.951057 0.309017 0
    outer loop
      vertex 11.5623 -1.30984 -1.5
      vertex 11.1553 -2.56244 -2.75
      vertex 11.1553 -2.56244 -1.5
    endloop
  endfacet
  facet normal 0.866026 0.499999 0
    outer loop
      vertex 0.303192 -3.70305 -1.5
      vertex -0.0449767 -3.1 -2.75
      vertex -0.0449767 -3.1 -1.5
    endloop
  endfacet
  facet normal 0.866026 0.499999 0
    outer loop
      vertex -0.0449767 -3.1 -2.75
      vertex 0.303192 -3.70305 -1.5
      vertex 0.303192 -3.70305 -2.75
    endloop
  endfacet
  facet normal 0.207912 0.978148 -0
    outer loop
      vertex 4.74147 -6.26549 -2.75
      vertex 3.45319 -5.99166 -1.5
      vertex 4.74147 -6.26549 -1.5
    endloop
  endfacet
  facet normal 0.207912 0.978148 0
    outer loop
      vertex 3.45319 -5.99166 -1.5
      vertex 4.74147 -6.26549 -2.75
      vertex 3.45319 -5.99166 -2.75
    endloop
  endfacet
  facet normal 0.587785 0.809017 -0
    outer loop
      vertex 2.25 -5.45596 -2.75
      vertex 1.18448 -4.68181 -1.5
      vertex 2.25 -5.45596 -1.5
    endloop
  endfacet
  facet normal 0.587785 0.809017 0
    outer loop
      vertex 1.18448 -4.68181 -1.5
      vertex 2.25 -5.45596 -2.75
      vertex 1.18448 -4.68181 -2.75
    endloop
  endfacet
  facet normal 0.406736 0.913546 -0
    outer loop
      vertex 3.45319 -5.99166 -2.75
      vertex 2.25 -5.45596 -1.5
      vertex 3.45319 -5.99166 -1.5
    endloop
  endfacet
  facet normal 0.406736 0.913546 0
    outer loop
      vertex 2.25 -5.45596 -1.5
      vertex 3.45319 -5.99166 -2.75
      vertex 2.25 -5.45596 -2.75
    endloop
  endfacet
  facet normal 0.743145 0.669131 0
    outer loop
      vertex 1.18448 -4.68181 -1.5
      vertex 0.303192 -3.70305 -2.75
      vertex 0.303192 -3.70305 -1.5
    endloop
  endfacet
  facet normal 0.743145 0.669131 0
    outer loop
      vertex 0.303192 -3.70305 -2.75
      vertex 1.18448 -4.68181 -1.5
      vertex 1.18448 -4.68181 -2.75
    endloop
  endfacet
  facet normal -0.406737 0.913545 0
    outer loop
      vertex 8.55 -5.45596 -2.75
      vertex 7.34681 -5.99166 -1.5
      vertex 8.55 -5.45596 -1.5
    endloop
  endfacet
  facet normal -0.406737 0.913545 0
    outer loop
      vertex 7.34681 -5.99166 -1.5
      vertex 8.55 -5.45596 -2.75
      vertex 7.34681 -5.99166 -2.75
    endloop
  endfacet
  facet normal -0.207912 0.978148 0
    outer loop
      vertex 7.34681 -5.99166 -2.75
      vertex 6.05853 -6.26549 -1.5
      vertex 7.34681 -5.99166 -1.5
    endloop
  endfacet
  facet normal -0.207912 0.978148 0
    outer loop
      vertex 6.05853 -6.26549 -1.5
      vertex 7.34681 -5.99166 -2.75
      vertex 6.05853 -6.26549 -2.75
    endloop
  endfacet
  facet normal 1 -0 0
    outer loop
      vertex -3.5 -3.1 -1.5
      vertex -3.5 3.1 -2.75
      vertex -3.5 3.1 -1.5
    endloop
  endfacet
  facet normal 1 0 0
    outer loop
      vertex -3.5 3.1 -2.75
      vertex -3.5 -3.1 -1.5
      vertex -3.5 -3.1 -2.75
    endloop
  endfacet
  facet normal 0 1 -0
    outer loop
      vertex -0.0449767 -3.1 -2.75
      vertex -3.5 -3.1 -1.5
      vertex -0.0449767 -3.1 -1.5
    endloop
  endfacet
  facet normal 0 1 0
    outer loop
      vertex -3.5 -3.1 -1.5
      vertex -0.0449767 -3.1 -2.75
      vertex -3.5 -3.1 -2.75
    endloop
  endfacet
  facet normal 0 -1 0
    outer loop
      vertex -3.5 3.1 -2.75
      vertex -0.0449767 3.1 -1.5
      vertex -3.5 3.1 -1.5
    endloop
  endfacet
  facet normal 0 -1 -0
    outer loop
      vertex -0.0449767 3.1 -1.5
      vertex -3.5 3.1 -2.75
      vertex -0.0449767 3.1 -2.75
    endloop
  endfacet
  facet normal 1 -0 0
    outer loop
      vertex -12 -6.3 2.75
      vertex -12 6.3 -1.5
      vertex -12 6.3 2.75
    endloop
  endfacet
  facet normal 1 0 0
    outer loop
      vertex -12 6.3 -1.5
      vertex -12 -6.3 2.75
      vertex -12 -6.3 -1.5
    endloop
  endfacet
  facet normal -1 0 0
    outer loop
      vertex 12 -6.3 -1.5
      vertex 12 6.3 2.75
      vertex 12 6.3 -1.5
    endloop
  endfacet
  facet normal -1 -0 0
    outer loop
      vertex 12 6.3 2.75
      vertex 12 -6.3 -1.5
      vertex 12 -6.3 2.75
    endloop
  endfacet
  facet normal 0 0 1
    outer loop
      vertex 12 6.3 -1.5
      vertex 11.7 0 -1.5
      vertex 12 -6.3 -1.5
    endloop
  endfacet
  facet normal 0 0 1
    outer loop
      vertex 12 6.3 -1.5
      vertex 11.5623 1.30984 -1.5
      vertex 11.7 0 -1.5
    endloop
  endfacet
  facet normal 0 0 1
    outer loop
      vertex 12 6.3 -1.5
      vertex 11.1553 2.56244 -1.5
      vertex 11.5623 1.30984 -1.5
    endloop
  endfacet
  facet normal 0 0 1
    outer loop
      vertex 12 6.3 -1.5
      vertex 10.4968 3.70305 -1.5
      vertex 11.1553 2.56244 -1.5
    endloop
  endfacet
  facet normal 0 0 1
    outer loop
      vertex 12 6.3 -1.5
      vertex 9.61552 4.68181 -1.5
      vertex 10.4968 3.70305 -1.5
    endloop
  endfacet
  facet normal 0 0 1
    outer loop
      vertex 12 6.3 -1.5
      vertex 8.55 5.45596 -1.5
      vertex 9.61552 4.68181 -1.5
    endloop
  endfacet
  facet normal 0 0 1
    outer loop
      vertex 12 6.3 -1.5
      vertex 7.34681 5.99166 -1.5
      vertex 8.55 5.45596 -1.5
    endloop
  endfacet
  facet normal 0 0 1
    outer loop
      vertex 12 6.3 -1.5
      vertex 6.05853 6.26549 -1.5
      vertex 7.34681 5.99166 -1.5
    endloop
  endfacet
  facet normal 0 0 1
    outer loop
      vertex 12 6.3 -1.5
      vertex 4.74147 6.26549 -1.5
      vertex 6.05853 6.26549 -1.5
    endloop
  endfacet
  facet normal 0 0 1
    outer loop
      vertex 0.303192 3.70305 -1.5
      vertex -3.5 3.1 -1.5
      vertex -0.0449767 3.1 -1.5
    endloop
  endfacet
  facet normal 0 0 1
    outer loop
      vertex 1.18448 4.68181 -1.5
      vertex -3.5 3.1 -1.5
      vertex 0.303192 3.70305 -1.5
    endloop
  endfacet
  facet normal 0 0 1
    outer loop
      vertex 2.25 5.45596 -1.5
      vertex -3.5 3.1 -1.5
      vertex 1.18448 4.68181 -1.5
    endloop
  endfacet
  facet normal 0 0 1
    outer loop
      vertex -12 6.3 -1.5
      vertex 2.25 5.45596 -1.5
      vertex 3.45319 5.99166 -1.5
    endloop
  endfacet
  facet normal 0 0 1
    outer loop
      vertex -3.5 3.1 -1.5
      vertex -12 6.3 -1.5
      vertex -3.5 -3.1 -1.5
    endloop
  endfacet
  facet normal 0 0 1
    outer loop
      vertex 2.25 5.45596 -1.5
      vertex -12 6.3 -1.5
      vertex -3.5 3.1 -1.5
    endloop
  endfacet
  facet normal 0 0 1
    outer loop
      vertex 4.74147 6.26549 -1.5
      vertex -12 6.3 -1.5
      vertex 3.45319 5.99166 -1.5
    endloop
  endfacet
  facet normal -0 0 1
    outer loop
      vertex -12 6.3 -1.5
      vertex 4.74147 6.26549 -1.5
      vertex 12 6.3 -1.5
    endloop
  endfacet
  facet normal -0 0 1
    outer loop
      vertex 11.5623 -1.30984 -1.5
      vertex 12 -6.3 -1.5
      vertex 11.7 0 -1.5
    endloop
  endfacet
  facet normal -0 0 1
    outer loop
      vertex 11.1553 -2.56244 -1.5
      vertex 12 -6.3 -1.5
      vertex 11.5623 -1.30984 -1.5
    endloop
  endfacet
  facet normal -0 0 1
    outer loop
      vertex 10.4968 -3.70305 -1.5
      vertex 12 -6.3 -1.5
      vertex 11.1553 -2.56244 -1.5
    endloop
  endfacet
  facet normal -0 0 1
    outer loop
      vertex 9.61552 -4.68181 -1.5
      vertex 12 -6.3 -1.5
      vertex 10.4968 -3.70305 -1.5
    endloop
  endfacet
  facet normal -0 0 1
    outer loop
      vertex 8.55 -5.45596 -1.5
      vertex 12 -6.3 -1.5
      vertex 9.61552 -4.68181 -1.5
    endloop
  endfacet
  facet normal -0 0 1
    outer loop
      vertex 7.34681 -5.99166 -1.5
      vertex 12 -6.3 -1.5
      vertex 8.55 -5.45596 -1.5
    endloop
  endfacet
  facet normal -0 0 1
    outer loop
      vertex 6.05853 -6.26549 -1.5
      vertex 12 -6.3 -1.5
      vertex 7.34681 -5.99166 -1.5
    endloop
  endfacet
  facet normal -0 0 1
    outer loop
      vertex 4.74147 -6.26549 -1.5
      vertex 12 -6.3 -1.5
      vertex 6.05853 -6.26549 -1.5
    endloop
  endfacet
  facet normal -0 0 1
    outer loop
      vertex -3.5 -3.1 -1.5
      vertex 0.303192 -3.70305 -1.5
      vertex -0.0449767 -3.1 -1.5
    endloop
  endfacet
  facet normal 0 0 1
    outer loop
      vertex -3.5 -3.1 -1.5
      vertex 1.18448 -4.68181 -1.5
      vertex 0.303192 -3.70305 -1.5
    endloop
  endfacet
  facet normal 0 0 1
    outer loop
      vertex -3.5 -3.1 -1.5
      vertex 2.25 -5.45596 -1.5
      vertex 1.18448 -4.68181 -1.5
    endloop
  endfacet
  facet normal 0 0 1
    outer loop
      vertex -12 -6.3 -1.5
      vertex 2.25 -5.45596 -1.5
      vertex -3.5 -3.1 -1.5
    endloop
  endfacet
  facet normal 0 0 1
    outer loop
      vertex 4.74147 -6.26549 -1.5
      vertex -12 -6.3 -1.5
      vertex 12 -6.3 -1.5
    endloop
  endfacet
  facet normal 0 0 1
    outer loop
      vertex 3.45319 -5.99166 -1.5
      vertex -12 -6.3 -1.5
      vertex 4.74147 -6.26549 -1.5
    endloop
  endfacet
  facet normal 0 0 1
    outer loop
      vertex 2.25 -5.45596 -1.5
      vertex -12 -6.3 -1.5
      vertex 3.45319 -5.99166 -1.5
    endloop
  endfacet
  facet normal 0 0 1
    outer loop
      vertex -12 -6.3 -1.5
      vertex -3.5 -3.1 -1.5
      vertex -12 6.3 -1.5
    endloop
  endfacet
  facet normal 0 1 -0
    outer loop
      vertex 12 -6.3 -1.5
      vertex -12 -6.3 2.75
      vertex 12 -6.3 2.75
    endloop
  endfacet
  facet normal 0 1 0
    outer loop
      vertex -12 -6.3 2.75
      vertex 12 -6.3 -1.5
      vertex -12 -6.3 -1.5
    endloop
  endfacet
  facet normal 0 -1 0
    outer loop
      vertex -12 6.3 -1.5
      vertex 12 6.3 2.75
      vertex -12 6.3 2.75
    endloop
  endfacet
  facet normal 0 -1 -0
    outer loop
      vertex 12 6.3 2.75
      vertex -12 6.3 -1.5
      vertex 12 6.3 -1.5
    endloop
  endfacet
  facet normal -0.994522 -0.104528 0
    outer loop
      vertex 15.3 0 -2.75
      vertex 15.2825 0.166328 2.75
      vertex 15.2825 0.166328 -2.75
    endloop
  endfacet
  facet normal -0.994522 -0.104528 0
    outer loop
      vertex 15.2825 0.166328 2.75
      vertex 15.3 0 -2.75
      vertex 15.3 0 2.75
    endloop
  endfacet
  facet normal 0.994522 -0.104528 0
    outer loop
      vertex 13.7 0 2.75
      vertex 13.7175 0.166328 -2.75
      vertex 13.7175 0.166328 2.75
    endloop
  endfacet
  facet normal 0.994522 -0.104528 0
    outer loop
      vertex 13.7175 0.166328 -2.75
      vertex 13.7 0 2.75
      vertex 13.7 0 -2.75
    endloop
  endfacet
  facet normal 0 -1 0
    outer loop
      vertex 14.4164 0.795617 -2.75
      vertex 14.5836 0.795617 2.75
      vertex 14.4164 0.795617 2.75
    endloop
  endfacet
  facet normal 0 -1 -0
    outer loop
      vertex 14.5836 0.795617 2.75
      vertex 14.4164 0.795617 -2.75
      vertex 14.5836 0.795617 -2.75
    endloop
  endfacet
  facet normal 0 1 -0
    outer loop
      vertex 14.5836 -0.795617 -2.75
      vertex 14.4164 -0.795617 2.75
      vertex 14.5836 -0.795617 2.75
    endloop
  endfacet
  facet normal 0 1 0
    outer loop
      vertex 14.4164 -0.795617 2.75
      vertex 14.5836 -0.795617 -2.75
      vertex 14.4164 -0.795617 -2.75
    endloop
  endfacet
  facet normal -0.743145 -0.66913 0
    outer loop
      vertex 15.1472 0.470228 -2.75
      vertex 15.0353 0.594516 2.75
      vertex 15.0353 0.594516 -2.75
    endloop
  endfacet
  facet normal -0.743145 -0.66913 0
    outer loop
      vertex 15.0353 0.594516 2.75
      vertex 15.1472 0.470228 -2.75
      vertex 15.1472 0.470228 2.75
    endloop
  endfacet
  facet normal -0.951057 -0.309015 0
    outer loop
      vertex 15.2825 0.166328 -2.75
      vertex 15.2308 0.325389 2.75
      vertex 15.2308 0.325389 -2.75
    endloop
  endfacet
  facet normal -0.951057 -0.309015 0
    outer loop
      vertex 15.2308 0.325389 2.75
      vertex 15.2825 0.166328 -2.75
      vertex 15.2825 0.166328 2.75
    endloop
  endfacet
  facet normal 0.587783 -0.809019 0
    outer loop
      vertex 13.9647 0.594516 -2.75
      vertex 14.1 0.69282 2.75
      vertex 13.9647 0.594516 2.75
    endloop
  endfacet
  facet normal 0.587783 -0.809019 0
    outer loop
      vertex 14.1 0.69282 2.75
      vertex 13.9647 0.594516 -2.75
      vertex 14.1 0.69282 -2.75
    endloop
  endfacet
  facet normal 0.207909 -0.978148 0
    outer loop
      vertex 14.2528 0.760845 -2.75
      vertex 14.4164 0.795617 2.75
      vertex 14.2528 0.760845 2.75
    endloop
  endfacet
  facet normal 0.207909 -0.978148 0
    outer loop
      vertex 14.4164 0.795617 2.75
      vertex 14.2528 0.760845 -2.75
      vertex 14.4164 0.795617 -2.75
    endloop
  endfacet
  facet normal -0.866026 0.5 0
    outer loop
      vertex 15.1472 -0.470228 -2.75
      vertex 15.2308 -0.325389 2.75
      vertex 15.2308 -0.325389 -2.75
    endloop
  endfacet
  facet normal -0.866026 0.5 0
    outer loop
      vertex 15.2308 -0.325389 2.75
      vertex 15.1472 -0.470228 -2.75
      vertex 15.1472 -0.470228 2.75
    endloop
  endfacet
  facet normal -0.866026 -0.5 0
    outer loop
      vertex 15.2308 0.325389 -2.75
      vertex 15.1472 0.470228 2.75
      vertex 15.1472 0.470228 -2.75
    endloop
  endfacet
  facet normal -0.866026 -0.5 0
    outer loop
      vertex 15.1472 0.470228 2.75
      vertex 15.2308 0.325389 -2.75
      vertex 15.2308 0.325389 2.75
    endloop
  endfacet
  facet normal -0.40674 -0.913544 0
    outer loop
      vertex 14.7472 0.760845 -2.75
      vertex 14.9 0.69282 2.75
      vertex 14.7472 0.760845 2.75
    endloop
  endfacet
  facet normal -0.40674 -0.913544 -0
    outer loop
      vertex 14.9 0.69282 2.75
      vertex 14.7472 0.760845 -2.75
      vertex 14.9 0.69282 -2.75
    endloop
  endfacet
  facet normal -0.207909 -0.978148 0
    outer loop
      vertex 14.5836 0.795617 -2.75
      vertex 14.7472 0.760845 2.75
      vertex 14.5836 0.795617 2.75
    endloop
  endfacet
  facet normal -0.207909 -0.978148 -0
    outer loop
      vertex 14.7472 0.760845 2.75
      vertex 14.5836 0.795617 -2.75
      vertex 14.7472 0.760845 -2.75
    endloop
  endfacet
  facet normal -0.587783 -0.809019 0
    outer loop
      vertex 14.9 0.69282 -2.75
      vertex 15.0353 0.594516 2.75
      vertex 14.9 0.69282 2.75
    endloop
  endfacet
  facet normal -0.587783 -0.809019 -0
    outer loop
      vertex 15.0353 0.594516 2.75
      vertex 14.9 0.69282 -2.75
      vertex 15.0353 0.594516 -2.75
    endloop
  endfacet
  facet normal 0.866026 -0.5 0
    outer loop
      vertex 13.7692 0.325389 2.75
      vertex 13.8528 0.470228 -2.75
      vertex 13.8528 0.470228 2.75
    endloop
  endfacet
  facet normal 0.866026 -0.5 0
    outer loop
      vertex 13.8528 0.470228 -2.75
      vertex 13.7692 0.325389 2.75
      vertex 13.7692 0.325389 -2.75
    endloop
  endfacet
  facet normal 0.743145 -0.66913 0
    outer loop
      vertex 13.8528 0.470228 2.75
      vertex 13.9647 0.594516 -2.75
      vertex 13.9647 0.594516 2.75
    endloop
  endfacet
  facet normal 0.743145 -0.66913 0
    outer loop
      vertex 13.9647 0.594516 -2.75
      vertex 13.8528 0.470228 2.75
      vertex 13.8528 0.470228 -2.75
    endloop
  endfacet
  facet normal 0.951057 -0.309015 0
    outer loop
      vertex 13.7175 0.166328 2.75
      vertex 13.7692 0.325389 -2.75
      vertex 13.7692 0.325389 2.75
    endloop
  endfacet
  facet normal 0.951057 -0.309015 0
    outer loop
      vertex 13.7692 0.325389 -2.75
      vertex 13.7175 0.166328 2.75
      vertex 13.7175 0.166328 -2.75
    endloop
  endfacet
  facet normal 0.40674 -0.913544 0
    outer loop
      vertex 14.1 0.69282 -2.75
      vertex 14.2528 0.760845 2.75
      vertex 14.1 0.69282 2.75
    endloop
  endfacet
  facet normal 0.40674 -0.913544 0
    outer loop
      vertex 14.2528 0.760845 2.75
      vertex 14.1 0.69282 -2.75
      vertex 14.2528 0.760845 -2.75
    endloop
  endfacet
  facet normal -0.207909 0.978148 0
    outer loop
      vertex 14.7472 -0.760845 -2.75
      vertex 14.5836 -0.795617 2.75
      vertex 14.7472 -0.760845 2.75
    endloop
  endfacet
  facet normal -0.207909 0.978148 0
    outer loop
      vertex 14.5836 -0.795617 2.75
      vertex 14.7472 -0.760845 -2.75
      vertex 14.5836 -0.795617 -2.75
    endloop
  endfacet
  facet normal -0.587783 0.809019 0
    outer loop
      vertex 15.0353 -0.594516 -2.75
      vertex 14.9 -0.69282 2.75
      vertex 15.0353 -0.594516 2.75
    endloop
  endfacet
  facet normal -0.587783 0.809019 0
    outer loop
      vertex 14.9 -0.69282 2.75
      vertex 15.0353 -0.594516 -2.75
      vertex 14.9 -0.69282 -2.75
    endloop
  endfacet
  facet normal -0.743145 0.66913 0
    outer loop
      vertex 15.0353 -0.594516 -2.75
      vertex 15.1472 -0.470228 2.75
      vertex 15.1472 -0.470228 -2.75
    endloop
  endfacet
  facet normal -0.743145 0.66913 0
    outer loop
      vertex 15.1472 -0.470228 2.75
      vertex 15.0353 -0.594516 -2.75
      vertex 15.0353 -0.594516 2.75
    endloop
  endfacet
  facet normal -0.951057 0.309015 0
    outer loop
      vertex 15.2308 -0.325389 -2.75
      vertex 15.2825 -0.166328 2.75
      vertex 15.2825 -0.166328 -2.75
    endloop
  endfacet
  facet normal -0.951057 0.309015 0
    outer loop
      vertex 15.2825 -0.166328 2.75
      vertex 15.2308 -0.325389 -2.75
      vertex 15.2308 -0.325389 2.75
    endloop
  endfacet
  facet normal -0.994522 0.104528 0
    outer loop
      vertex 15.2825 -0.166328 -2.75
      vertex 15.3 0 2.75
      vertex 15.3 0 -2.75
    endloop
  endfacet
  facet normal -0.994522 0.104528 0
    outer loop
      vertex 15.3 0 2.75
      vertex 15.2825 -0.166328 -2.75
      vertex 15.2825 -0.166328 2.75
    endloop
  endfacet
  facet normal 0.587783 0.809019 -0
    outer loop
      vertex 14.1 -0.69282 -2.75
      vertex 13.9647 -0.594516 2.75
      vertex 14.1 -0.69282 2.75
    endloop
  endfacet
  facet normal 0.587783 0.809019 0
    outer loop
      vertex 13.9647 -0.594516 2.75
      vertex 14.1 -0.69282 -2.75
      vertex 13.9647 -0.594516 -2.75
    endloop
  endfacet
  facet normal 0.866026 0.5 0
    outer loop
      vertex 13.8528 -0.470228 2.75
      vertex 13.7692 -0.325389 -2.75
      vertex 13.7692 -0.325389 2.75
    endloop
  endfacet
  facet normal 0.866026 0.5 0
    outer loop
      vertex 13.7692 -0.325389 -2.75
      vertex 13.8528 -0.470228 2.75
      vertex 13.8528 -0.470228 -2.75
    endloop
  endfacet
  facet normal 0.743145 0.66913 0
    outer loop
      vertex 13.9647 -0.594516 2.75
      vertex 13.8528 -0.470228 -2.75
      vertex 13.8528 -0.470228 2.75
    endloop
  endfacet
  facet normal 0.743145 0.66913 0
    outer loop
      vertex 13.8528 -0.470228 -2.75
      vertex 13.9647 -0.594516 2.75
      vertex 13.9647 -0.594516 -2.75
    endloop
  endfacet
  facet normal 0.994522 0.104528 0
    outer loop
      vertex 13.7175 -0.166328 2.75
      vertex 13.7 0 -2.75
      vertex 13.7 0 2.75
    endloop
  endfacet
  facet normal 0.994522 0.104528 0
    outer loop
      vertex 13.7 0 -2.75
      vertex 13.7175 -0.166328 2.75
      vertex 13.7175 -0.166328 -2.75
    endloop
  endfacet
  facet normal -0.40674 0.913544 0
    outer loop
      vertex 14.9 -0.69282 -2.75
      vertex 14.7472 -0.760845 2.75
      vertex 14.9 -0.69282 2.75
    endloop
  endfacet
  facet normal -0.40674 0.913544 0
    outer loop
      vertex 14.7472 -0.760845 2.75
      vertex 14.9 -0.69282 -2.75
      vertex 14.7472 -0.760845 -2.75
    endloop
  endfacet
  facet normal 0.207909 0.978148 -0
    outer loop
      vertex 14.4164 -0.795617 -2.75
      vertex 14.2528 -0.760845 2.75
      vertex 14.4164 -0.795617 2.75
    endloop
  endfacet
  facet normal 0.207909 0.978148 0
    outer loop
      vertex 14.2528 -0.760845 2.75
      vertex 14.4164 -0.795617 -2.75
      vertex 14.2528 -0.760845 -2.75
    endloop
  endfacet
  facet normal 0.951057 0.309015 0
    outer loop
      vertex 13.7692 -0.325389 2.75
      vertex 13.7175 -0.166328 -2.75
      vertex 13.7175 -0.166328 2.75
    endloop
  endfacet
  facet normal 0.951057 0.309015 0
    outer loop
      vertex 13.7175 -0.166328 -2.75
      vertex 13.7692 -0.325389 2.75
      vertex 13.7692 -0.325389 -2.75
    endloop
  endfacet
  facet normal 0.40674 0.913544 -0
    outer loop
      vertex 14.2528 -0.760845 -2.75
      vertex 14.1 -0.69282 2.75
      vertex 14.2528 -0.760845 2.75
    endloop
  endfacet
  facet normal 0.40674 0.913544 0
    outer loop
      vertex 14.1 -0.69282 2.75
      vertex 14.2528 -0.760845 -2.75
      vertex 14.1 -0.69282 -2.75
    endloop
  endfacet
  facet normal -0.994522 -0.104528 0
    outer loop
      vertex -13.7 0 -2.75
      vertex -13.7175 0.166328 2.75
      vertex -13.7175 0.166328 -2.75
    endloop
  endfacet
  facet normal -0.994522 -0.104528 0
    outer loop
      vertex -13.7175 0.166328 2.75
      vertex -13.7 0 -2.75
      vertex -13.7 0 2.75
    endloop
  endfacet
  facet normal 0.994522 -0.104528 0
    outer loop
      vertex -15.3 0 2.75
      vertex -15.2825 0.166328 -2.75
      vertex -15.2825 0.166328 2.75
    endloop
  endfacet
  facet normal 0.994522 -0.104528 0
    outer loop
      vertex -15.2825 0.166328 -2.75
      vertex -15.3 0 2.75
      vertex -15.3 0 -2.75
    endloop
  endfacet
  facet normal 0 -1 0
    outer loop
      vertex -14.5836 0.795617 -2.75
      vertex -14.4164 0.795617 2.75
      vertex -14.5836 0.795617 2.75
    endloop
  endfacet
  facet normal 0 -1 -0
    outer loop
      vertex -14.4164 0.795617 2.75
      vertex -14.5836 0.795617 -2.75
      vertex -14.4164 0.795617 -2.75
    endloop
  endfacet
  facet normal 0 1 -0
    outer loop
      vertex -14.4164 -0.795617 -2.75
      vertex -14.5836 -0.795617 2.75
      vertex -14.4164 -0.795617 2.75
    endloop
  endfacet
  facet normal 0 1 0
    outer loop
      vertex -14.5836 -0.795617 2.75
      vertex -14.4164 -0.795617 -2.75
      vertex -14.5836 -0.795617 -2.75
    endloop
  endfacet
  facet normal -0.743145 -0.66913 0
    outer loop
      vertex -13.8528 0.470228 -2.75
      vertex -13.9647 0.594516 2.75
      vertex -13.9647 0.594516 -2.75
    endloop
  endfacet
  facet normal -0.743145 -0.66913 0
    outer loop
      vertex -13.9647 0.594516 2.75
      vertex -13.8528 0.470228 -2.75
      vertex -13.8528 0.470228 2.75
    endloop
  endfacet
  facet normal -0.951057 -0.309015 0
    outer loop
      vertex -13.7175 0.166328 -2.75
      vertex -13.7692 0.325389 2.75
      vertex -13.7692 0.325389 -2.75
    endloop
  endfacet
  facet normal -0.951057 -0.309015 0
    outer loop
      vertex -13.7692 0.325389 2.75
      vertex -13.7175 0.166328 -2.75
      vertex -13.7175 0.166328 2.75
    endloop
  endfacet
  facet normal 0.587783 -0.809019 0
    outer loop
      vertex -15.0353 0.594516 -2.75
      vertex -14.9 0.69282 2.75
      vertex -15.0353 0.594516 2.75
    endloop
  endfacet
  facet normal 0.587783 -0.809019 0
    outer loop
      vertex -14.9 0.69282 2.75
      vertex -15.0353 0.594516 -2.75
      vertex -14.9 0.69282 -2.75
    endloop
  endfacet
  facet normal 0.207909 -0.978148 0
    outer loop
      vertex -14.7472 0.760845 -2.75
      vertex -14.5836 0.795617 2.75
      vertex -14.7472 0.760845 2.75
    endloop
  endfacet
  facet normal 0.207909 -0.978148 0
    outer loop
      vertex -14.5836 0.795617 2.75
      vertex -14.7472 0.760845 -2.75
      vertex -14.5836 0.795617 -2.75
    endloop
  endfacet
  facet normal -0.866026 0.5 0
    outer loop
      vertex -13.8528 -0.470228 -2.75
      vertex -13.7692 -0.325389 2.75
      vertex -13.7692 -0.325389 -2.75
    endloop
  endfacet
  facet normal -0.866026 0.5 0
    outer loop
      vertex -13.7692 -0.325389 2.75
      vertex -13.8528 -0.470228 -2.75
      vertex -13.8528 -0.470228 2.75
    endloop
  endfacet
  facet normal -0.866026 -0.5 0
    outer loop
      vertex -13.7692 0.325389 -2.75
      vertex -13.8528 0.470228 2.75
      vertex -13.8528 0.470228 -2.75
    endloop
  endfacet
  facet normal -0.866026 -0.5 0
    outer loop
      vertex -13.8528 0.470228 2.75
      vertex -13.7692 0.325389 -2.75
      vertex -13.7692 0.325389 2.75
    endloop
  endfacet
  facet normal -0.40674 -0.913544 0
    outer loop
      vertex -14.2528 0.760845 -2.75
      vertex -14.1 0.69282 2.75
      vertex -14.2528 0.760845 2.75
    endloop
  endfacet
  facet normal -0.40674 -0.913544 -0
    outer loop
      vertex -14.1 0.69282 2.75
      vertex -14.2528 0.760845 -2.75
      vertex -14.1 0.69282 -2.75
    endloop
  endfacet
  facet normal -0.207909 -0.978148 0
    outer loop
      vertex -14.4164 0.795617 -2.75
      vertex -14.2528 0.760845 2.75
      vertex -14.4164 0.795617 2.75
    endloop
  endfacet
  facet normal -0.207909 -0.978148 -0
    outer loop
      vertex -14.2528 0.760845 2.75
      vertex -14.4164 0.795617 -2.75
      vertex -14.2528 0.760845 -2.75
    endloop
  endfacet
  facet normal -0.587783 -0.809019 0
    outer loop
      vertex -14.1 0.69282 -2.75
      vertex -13.9647 0.594516 2.75
      vertex -14.1 0.69282 2.75
    endloop
  endfacet
  facet normal -0.587783 -0.809019 -0
    outer loop
      vertex -13.9647 0.594516 2.75
      vertex -14.1 0.69282 -2.75
      vertex -13.9647 0.594516 -2.75
    endloop
  endfacet
  facet normal 0.866026 -0.5 0
    outer loop
      vertex -15.2308 0.325389 2.75
      vertex -15.1472 0.470228 -2.75
      vertex -15.1472 0.470228 2.75
    endloop
  endfacet
  facet normal 0.866026 -0.5 0
    outer loop
      vertex -15.1472 0.470228 -2.75
      vertex -15.2308 0.325389 2.75
      vertex -15.2308 0.325389 -2.75
    endloop
  endfacet
  facet normal 0.743145 -0.66913 0
    outer loop
      vertex -15.1472 0.470228 2.75
      vertex -15.0353 0.594516 -2.75
      vertex -15.0353 0.594516 2.75
    endloop
  endfacet
  facet normal 0.743145 -0.66913 0
    outer loop
      vertex -15.0353 0.594516 -2.75
      vertex -15.1472 0.470228 2.75
      vertex -15.1472 0.470228 -2.75
    endloop
  endfacet
  facet normal 0.951057 -0.309015 0
    outer loop
      vertex -15.2825 0.166328 2.75
      vertex -15.2308 0.325389 -2.75
      vertex -15.2308 0.325389 2.75
    endloop
  endfacet
  facet normal 0.951057 -0.309015 0
    outer loop
      vertex -15.2308 0.325389 -2.75
      vertex -15.2825 0.166328 2.75
      vertex -15.2825 0.166328 -2.75
    endloop
  endfacet
  facet normal 0.40674 -0.913544 0
    outer loop
      vertex -14.9 0.69282 -2.75
      vertex -14.7472 0.760845 2.75
      vertex -14.9 0.69282 2.75
    endloop
  endfacet
  facet normal 0.40674 -0.913544 0
    outer loop
      vertex -14.7472 0.760845 2.75
      vertex -14.9 0.69282 -2.75
      vertex -14.7472 0.760845 -2.75
    endloop
  endfacet
  facet normal -0.994522 0.104528 0
    outer loop
      vertex -13.7175 -0.166328 -2.75
      vertex -13.7 0 2.75
      vertex -13.7 0 -2.75
    endloop
  endfacet
  facet normal -0.994522 0.104528 0
    outer loop
      vertex -13.7 0 2.75
      vertex -13.7175 -0.166328 -2.75
      vertex -13.7175 -0.166328 2.75
    endloop
  endfacet
  facet normal -0.207909 0.978148 0
    outer loop
      vertex -14.2528 -0.760845 -2.75
      vertex -14.4164 -0.795617 2.75
      vertex -14.2528 -0.760845 2.75
    endloop
  endfacet
  facet normal -0.207909 0.978148 0
    outer loop
      vertex -14.4164 -0.795617 2.75
      vertex -14.2528 -0.760845 -2.75
      vertex -14.4164 -0.795617 -2.75
    endloop
  endfacet
  facet normal -0.587783 0.809019 0
    outer loop
      vertex -13.9647 -0.594516 -2.75
      vertex -14.1 -0.69282 2.75
      vertex -13.9647 -0.594516 2.75
    endloop
  endfacet
  facet normal -0.587783 0.809019 0
    outer loop
      vertex -14.1 -0.69282 2.75
      vertex -13.9647 -0.594516 -2.75
      vertex -14.1 -0.69282 -2.75
    endloop
  endfacet
  facet normal -0.743145 0.66913 0
    outer loop
      vertex -13.9647 -0.594516 -2.75
      vertex -13.8528 -0.470228 2.75
      vertex -13.8528 -0.470228 -2.75
    endloop
  endfacet
  facet normal -0.743145 0.66913 0
    outer loop
      vertex -13.8528 -0.470228 2.75
      vertex -13.9647 -0.594516 -2.75
      vertex -13.9647 -0.594516 2.75
    endloop
  endfacet
  facet normal -0.951057 0.309015 0
    outer loop
      vertex -13.7692 -0.325389 -2.75
      vertex -13.7175 -0.166328 2.75
      vertex -13.7175 -0.166328 -2.75
    endloop
  endfacet
  facet normal -0.951057 0.309015 0
    outer loop
      vertex -13.7175 -0.166328 2.75
      vertex -13.7692 -0.325389 -2.75
      vertex -13.7692 -0.325389 2.75
    endloop
  endfacet
  facet normal 0.587783 0.809019 -0
    outer loop
      vertex -14.9 -0.69282 -2.75
      vertex -15.0353 -0.594516 2.75
      vertex -14.9 -0.69282 2.75
    endloop
  endfacet
  facet normal 0.587783 0.809019 0
    outer loop
      vertex -15.0353 -0.594516 2.75
      vertex -14.9 -0.69282 -2.75
      vertex -15.0353 -0.594516 -2.75
    endloop
  endfacet
  facet normal 0.866026 0.5 0
    outer loop
      vertex -15.1472 -0.470228 2.75
      vertex -15.2308 -0.325389 -2.75
      vertex -15.2308 -0.325389 2.75
    endloop
  endfacet
  facet normal 0.866026 0.5 0
    outer loop
      vertex -15.2308 -0.325389 -2.75
      vertex -15.1472 -0.470228 2.75
      vertex -15.1472 -0.470228 -2.75
    endloop
  endfacet
  facet normal 0.743145 0.66913 0
    outer loop
      vertex -15.0353 -0.594516 2.75
      vertex -15.1472 -0.470228 -2.75
      vertex -15.1472 -0.470228 2.75
    endloop
  endfacet
  facet normal 0.743145 0.66913 0
    outer loop
      vertex -15.1472 -0.470228 -2.75
      vertex -15.0353 -0.594516 2.75
      vertex -15.0353 -0.594516 -2.75
    endloop
  endfacet
  facet normal -0.40674 0.913544 0
    outer loop
      vertex -14.1 -0.69282 -2.75
      vertex -14.2528 -0.760845 2.75
      vertex -14.1 -0.69282 2.75
    endloop
  endfacet
  facet normal -0.40674 0.913544 0
    outer loop
      vertex -14.2528 -0.760845 2.75
      vertex -14.1 -0.69282 -2.75
      vertex -14.2528 -0.760845 -2.75
    endloop
  endfacet
  facet normal 0.207909 0.978148 -0
    outer loop
      vertex -14.5836 -0.795617 -2.75
      vertex -14.7472 -0.760845 2.75
      vertex -14.5836 -0.795617 2.75
    endloop
  endfacet
  facet normal 0.207909 0.978148 0
    outer loop
      vertex -14.7472 -0.760845 2.75
      vertex -14.5836 -0.795617 -2.75
      vertex -14.7472 -0.760845 -2.75
    endloop
  endfacet
  facet normal 0.951057 0.309015 0
    outer loop
      vertex -15.2308 -0.325389 2.75
      vertex -15.2825 -0.166328 -2.75
      vertex -15.2825 -0.166328 2.75
    endloop
  endfacet
  facet normal 0.951057 0.309015 0
    outer loop
      vertex -15.2825 -0.166328 -2.75
      vertex -15.2308 -0.325389 2.75
      vertex -15.2308 -0.325389 -2.75
    endloop
  endfacet
  facet normal 0.994522 0.104528 0
    outer loop
      vertex -15.2825 -0.166328 2.75
      vertex -15.3 0 -2.75
      vertex -15.3 0 2.75
    endloop
  endfacet
  facet normal 0.994522 0.104528 0
    outer loop
      vertex -15.3 0 -2.75
      vertex -15.2825 -0.166328 2.75
      vertex -15.2825 -0.166328 -2.75
    endloop
  endfacet
  facet normal 0.40674 0.913544 -0
    outer loop
      vertex -14.7472 -0.760845 -2.75
      vertex -14.9 -0.69282 2.75
      vertex -14.7472 -0.760845 2.75
    endloop
  endfacet
  facet normal 0.40674 0.913544 0
    outer loop
      vertex -14.9 -0.69282 2.75
      vertex -14.7472 -0.760845 -2.75
      vertex -14.9 -0.69282 -2.75
    endloop
  endfacet
endsolid OpenSCAD_Model
